<?xml version="1.0" encoding="UTF-8"?><svg id="_イヤー_1" xmlns="http://www.w3.org/2000/svg" viewBox="0 0 405.03 387.76"><defs><style>.cls-1{fill:#efdcdc;}.cls-2{fill:#fff;}.cls-3,.cls-4{fill:#293462;}.cls-4{font-family:Helvetica-Bold, Helvetica;font-size:60px;}</style></defs><g><circle class="cls-2" cx="200.21" cy="169.45" r="107"/><path class="cls-3" d="M200.21,65.95c57.07,0,103.5,46.43,103.5,103.5s-46.43,103.5-103.5,103.5-103.5-46.43-103.5-103.5,46.43-103.5,103.5-103.5m0-7c-61.03,0-110.5,49.47-110.5,110.5s49.47,110.5,110.5,110.5,110.5-49.47,110.5-110.5-49.47-110.5-110.5-110.5h0Z"/></g><path class="cls-1" d="M311.21,165.45c-1.73-10.39-5.46-17.78-10.62-22.94-1.34-1.34-2.83-2.43-4.43-3.31-3.29-7.19-13.23-29.81-13.11-40.25,.01-.99-.08-2.04-.25-3.14l.4,.64c16-6,17-19,15.73-38-.54-8.17-1.22-36.5-1.22-36.5,0,0-1.51,.5-15.51,10.5-14.21,10.15-23,26-23,26l4.11,6.51c-2.69-2.1-5.44-3.69-8.11-4.51-13-4-33.93-9.55-51.47,3.23l5.53,4.6-5.46-4.24c-.03-.12-.05-.23-.07-.36-.96-4.51-2.64-10.73-5.03-13.73-4-5-24-25-33-28,0,0,2,29.23,0,33.12-2,3.88-4,16.88-2,21.88,1.73,4.33,2.71,8.66,2.95,9.74l-6.95,4.26,.11,.2c-6.77,4.08-16.71,9.92-21.11,11.8-3.95,1.69-11.19,2.88-19,6-5,2-8.83,2.16-17,15-7,11-25.38,56.69,9.5,104.5,41.78,57.29,66.5,46.5,86.5,25.5,8.02-8.42,15.89-21.5,20.46-32.2,2-4.69,6.01-10,14.04-13.3,16.67-6.87,39.11-14.69,44.68-20.65,2.9,.19,5.4-.08,6.88-.35,5.44-1,29.44-4,26.44-22Zm-18.5-27.74c-.66-.21-1.32-.4-1.99-.54l.58-.63,1.41,1.17Z"/><g><ellipse class="cls-3" cx="225.71" cy="115.45" rx="8" ry="10.5"/><path class="cls-3" d="M316.65,168.71c-1.79-10.75-5.79-19.29-11.87-25.38h0c-2.02-2.03-4.36-3.62-6.87-4.79-2.99-7.78-9.23-25.88-9.34-35.05,16.64-7.75,17.07-23.34,15.87-41.34-.53-7.98-1.21-36.03-1.21-36.31l-.15-6.07-5.77,1.91c-.59,.2-2.16,.71-16.71,11.11-13.73,9.81-22.51,24.34-24.08,27.05-10.03-3.07-30.56-8.86-48.93,.79-1.27-4.24-2.73-7.44-4.37-9.48-3.7-4.62-24.61-25.97-35.09-29.46l-6.37-2.12,.46,6.7c.87,12.66,1.26,27.98,.41,30.91-2.34,4.76-4.7,18.94-2.1,25.45,.89,2.23,1.57,4.48,2.04,6.2-5.88,3.59-19.49,11.78-24.63,13.99-1.64,.7-6.79,1.68-21.63,5.46-6.6,1.68-11.6,1.68-20.6,20.68-1.7,3.59-22.97,55.65,13.86,106.15,16.97,23.27,36.04,36.63,56.66,39.73,3.15,.47,6.31,1.27,9.3,.69,13.17-2.57,16.17-8.57,26.49-18.95,8.37-8.41,17.19-17.16,22.27-29.05,2.11-4.93,6.01-8.6,11.62-10.91,3.56-1.47,7.32-2.95,11.3-4.52,16.68-6.58,27.88-11.2,33.38-15.74,.09,0,.19,0,.29,0,2.78,0,4.88-.33,5.7-.48,.29-.05,.65-.11,1.04-.18,3.66-.63,11.27-1.93,17.75-5.47,8.91-4.87,12.81-12.31,11.27-21.51Zm-30.82-128.6c3.69-2.64,6.49-4.59,8.6-6.04,.24,9.05,.66,23.19,1.03,28.68,1.12,16.8,.1,26.12-8.42,31.37-3.46-10.94-12.36-23.86-22.31-30.46,2.1-3.47,9.88-15.53,21.11-23.55Zm-41.91,163.61c-3.83,1.51-7.8,3.08-11.42,4.57-7.75,3.19-13.45,8.62-16.47,15.7-4.46,10.44-10.4,18.35-17.32,25.96-10,11-20,16-31.14,15.98-18.36-.04-36.36-12.73-51.86-33.98-26.46-36.27-17.73-87.21-17-92,.48-3.19,5.24-19.93,19.42-22.87,12.03-2.49,19.88-4.51,23.35-6,5.53-2.37,18.82-10.34,25.16-14.2,2.66,3.2,6.96,7.83,11.24,10.05l4.16-7.98c-3.57-1.86-8.11-7.25-10.13-9.92-.42-1.82-1.41-5.77-3.01-9.76-1.38-3.45,.26-15.12,1.82-18.15,1.72-3.34,1.6-15.36,.99-27.18,8.88,6.44,21.26,18.77,24.5,22.82,1.38,1.73,2.93,6.16,4.15,11.85,.6,2.82,.91,4.95,.91,4.97l8.91-1.27c0-.06-.15-1.05-.43-2.56,14.12-8.71,30.67-5.45,45.15-1,11.35,3.49,24.8,23.94,24.67,34.14-.11,9.2,4.78,24.51,7.92,33.36-4.17,0-8.37,1.02-12.2,3.16-15.57,8.69-23.21,20.28-21.53,32.65,1.18,8.65,4.71,15.16,10.51,19.36,1.18,.86,2.41,1.57,3.64,2.16-6.72,3.33-16.26,7.09-23.98,10.14Zm42.19-16.9c-.44,.08-.83,.14-1.15,.2-.93,.17-9.28,1.55-15.42-2.9-3.72-2.7-6.03-7.17-6.87-13.28-1.48-10.82,8.43-18.79,17-23.57,2.46-1.37,5.16-2.04,7.83-2.04,4.03,0,7.99,1.53,10.91,4.45,4.8,4.81,7.86,11.52,9.36,20.5,1.43,8.57-5.46,13.85-21.67,16.63Z"/><rect class="cls-3" x="269.2" y="162.7" width="16.51" height="7" transform="translate(102.93 438.5) rotate(-88.27)"/><rect class="cls-3" x="286.2" y="162.7" width="16.51" height="7" transform="translate(119.42 455.49) rotate(-88.27)"/></g><text class="cls-4" transform="translate(153.28 339.34)"><tspan x="0" y="0">Pig</tspan></text></svg>