<?xml version="1.0" encoding="UTF-8"?><svg id="_イヤー_1" xmlns="http://www.w3.org/2000/svg" viewBox="0 0 405.03 387.76"><defs><style>.cls-1,.cls-2{fill:#fff;}.cls-3,.cls-4{fill:#293462;}.cls-4{font-family:Helvetica-Bold, Helvetica;font-size:59.97px;}.cls-2,.cls-5{stroke:#293462;stroke-miterlimit:10;stroke-width:7.56px;}.cls-5{fill:#edddce;}</style></defs><circle class="cls-2" cx="195.53" cy="147.47" r="110.5"/><path class="cls-5" d="M297.03,124.97s-28-2-36,2c-5.82,2.91-11.65,13.24-14.39,18.65-1.12,2.21-1.82,4.6-2.07,7.06-.59,5.84-1.15,16.95,2.46,21.29,5,6,36,6,36,6,11.75,0,22.34-1.33,28.73-2.35,4.12-.66,7.31-3.9,7.93-8.02,.81-5.41,1.11-13.68-1.66-23.63-5-18-21-21-21-21-17-20-19-26-28.53-53.01-9.53-27.01-22.47-43.99-57.47-44.99s-77,60-87,71c-6.26,6.89-16.45,12.6-23.19,15.91-5.53,2.71-9.79,1.35-12.81,11.09-9,29,.43,72.45,32,103,31,30,75.42,36.99,92.84,25.34,4.88-3.27,8.27-8.3,9.69-14,8.1-32.68,32.03-41.41,39.55-42.34,8.08-1,17.92,3,29.92,0s23-21,23-21"/><path class="cls-5" d="M259.03,48.97s13-6,57-1c0,0-12,23-26,29-14,6-17,7-17,7"/><path class="cls-5" d="M171.03,77.97s-15,4-27-6-22.99-25.8-22.99-25.8c0,0,63.99,.8,68.99,7.8"/><path class="cls-1" d="M270.03,147.97s8,3,9,9"/><path class="cls-3" d="M274.73,156.1c-.9-1.52-2.63-2.79-4.08-3.63-1.11-.64-1.58-1.99-1.13-3.18l.84-2.22c.56-1.5,2.32-2.14,3.72-1.37,2.43,1.33,5.82,3.73,7.61,7.35,.79,1.59-.15,3.49-1.9,3.79l-2.44,.41c-1.02,.17-2.09-.26-2.62-1.15Z"/><path class="cls-1" d="M299.21,156.97s2.02-6,6.92-9"/><path class="cls-3" d="M300.61,157.45l-2.35-.79c-1.49-.5-2.17-2.21-1.45-3.61,.97-1.89,2.57-4.43,4.97-6.54,1.18-1.04,3.02-.71,3.83,.63l1.3,2.12c.64,1.04,.44,2.37-.44,3.21-1.27,1.21-2.19,2.65-2.8,3.79s-1.89,1.6-3.07,1.2Z"/><ellipse class="cls-3" cx="210.03" cy="97.47" rx="8" ry="10.5"/><text class="cls-4" transform="translate(127.02 331.96)"><tspan x="0" y="0">Cow</tspan></text></svg>