<?xml version="1.0" encoding="UTF-8"?><svg id="_イヤー_1" xmlns="http://www.w3.org/2000/svg" viewBox="0 0 405.03 387.76"><defs><style>.cls-1,.cls-2{fill:#293462;}.cls-3{fill:#faffb4;}.cls-3,.cls-4,.cls-5{stroke-width:9px;}.cls-3,.cls-4,.cls-5,.cls-6{stroke:#293462;stroke-miterlimit:10;}.cls-4{fill:#f76262;}.cls-5{fill:#fff4d7;}.cls-2{font-family:Helvetica-Bold, Helvetica;font-size:60px;}.cls-6{fill:#fff;stroke-width:7.56px;}</style></defs><circle class="cls-6" cx="202.62" cy="182.86" r="110.5"/><path class="cls-5" d="M272.62,260.86c-22-44-1.5-133.5-1.5-133.5,12-51-37-68-37-68-80-17-123.5,182.5-123.5,182.5,0,0,18.39,41,81.2,48.5,62.8,7.5,80.8-29.5,80.8-29.5Z"/><path class="cls-3" d="M232.66,167.41c-5.41-6.21-8.16-14.42-7.21-22.6,.59-5.15,2.62-10.55,7.68-14.44,3.25-2.5,6.5-3.94,9.55-4.69,8.92-2.2,18.26,1.64,23.49,9.19,5.94,8.57,13.03,25.45,9.96,55.5,0,0-22.73,.84-43.47-22.96Z"/><path class="cls-3" d="M227,155.99l-1.74-2.2s-8.64,34.08-8.64,53.08c0,0,2,13,12,13s17-9,17.5-13,.5-26,.5-26"/><path class="cls-4" d="M212.12,15.36c9.37-2.47,21.21,12.33,23.58,15.44,.24,.32,.49,.63,.75,.93,1.86,2.24,14.09,26.24,14.65,64.04,.01,.98-1.5,1.48-1.79,.54-4.69-15.45-21.32-37.38-38.16-36.75s-33.58,18.6-40.19,26.32c-2.89,3.37-7.34,5.16-11.7,4.32-1.45-.28-2.89-.84-4.14-1.84-5-4-2-10.39,0-12.69,1.55-1.79,10.52-7.81,13.57-10.42,.6-.51,.39-1.48-.36-1.7-3.39-1.01-12.45-3.64-13.2-8.18-1-6,8-8,11-8,2.75,0,19.13-1.26,21.2-1.47,.09,0,.12-.13,.04-.18-1.56-.91-13.47-6.01-9.48-13.91,.2-.39,.47-.75,.79-1.06,1.49-1.41,6.21-4.57,16.95-1.89,5.35,1.34,15.26,6.68,17.92,7.42,.8,.22,1.5-.58,1.17-1.34-1.79-4.13-9.98-17.63-2.59-19.58Z"/><ellipse class="cls-1" cx="201.12" cy="116.86" rx="8" ry="10.5"/><text class="cls-2" transform="translate(85.81 343.81)"><tspan x="0" y="0">Chicken</tspan></text></svg>