<?xml version="1.0" encoding="UTF-8"?><svg id="_イヤー_1" xmlns="http://www.w3.org/2000/svg" viewBox="0 0 761 637"><defs><style>.cls-1{fill:#efdcdc;}.cls-2{fill:#f76262;}.cls-3{fill:#fff;}.cls-4{fill:#f0a2a2;}.cls-5{fill:#293462;}.cls-6{fill:#09006a;font-family:YuGo-Bold-83pv-RKSJ-H, YuGothic;font-size:20px;}.cls-7{fill:none;stroke:#09006a;stroke-miterlimit:10;stroke-width:2px;}</style></defs><rect class="cls-3" x="92.47" y="237.48" width="49.5" height="49.5" rx="12" ry="12"/><g><path class="cls-1" d="M576.52,534.04c-.2,0-.31-.02-.35-.03-2.14-.54-3.68-2.29-4.4-3.3-1.1-1.53-2.87-2.44-4.73-2.44-.58,0-1.16,.09-1.72,.26-3.25,1.01-14.34,4.32-20.52,4.32-.65,0-1.21-.04-1.66-.11-.23-.04-.43-.08-.59-.12,.61-1.07,.65-2.37,.07-3.49-.63-1.24-1.89-2.01-3.28-2.01h-.9l-.87,.45c-.89,.49-3.15,1.61-5.25,1.61-.71,0-1.31-.13-1.82-.4-.2-2.11,1.89-9.36,8.8-22.2,1.25-2.32,1.91-4.95,1.91-7.6v-37.88c0-8.52-6.08-15.78-14.46-17.26-6.44-1.14-12.14-2.6-16.96-4.35-7.94-2.89-15.46-5.78-20.37-7.7-2.48-.97-5.09-1.46-7.75-1.46-1.48,0-2.97,.16-4.42,.46-15.57,3.31-56.85,11-103.83,11-11.02,0-21.76-.44-31.91-1.3-53.63-4.54-77.57-13.97-85.37-17.81-1.11-.55-2.3-.82-3.53-.82-3.35,0-6.37,2.12-7.53,5.27-4.41,12.05-11.96,34.5-12.89,49.38-.93,14.85-1.86,24.04-2.22,27.3-.07,.68-.39,1.28-.89,1.69-.99,.82-2.91,2.01-6.48,3.03l-5.19,1.48c-2.96,.85-5.3,3.22-6.11,6.19-.09,.33-.18,.55-.25,.68-.49,0-1.06,.03-1.68,.05-.92,.04-1.99,.08-3.11,.08-5.25,0-6.85-1.01-7.34-1.63-.54-1.75-2.3-4.57-8.12-4.57-3.74,0-6.4,1.94-8.34,3.36-.95,.7-2.03,1.49-2.58,1.49-9.38,0-12.43-1.16-13.34-1.7,.81-1.94,4.71-7.14,13.27-15.32,1.4-1.34,2.31-3.13,2.57-5.05,1.39-10.51,8.2-63.89,5.83-82.82-.85-6.8-9.43-12.02-20.29-18.64-6.24-3.8-12.7-7.73-17.89-12.14-2.72-2.3-4.98-5.12-6.73-8.37-2.4-4.45-6.45-11.69-12.15-20.9-4.04-6.53-10.57-11.85-19.4-15.82-8.05-3.62-22.6-10.3-29.57-14.32-3.5-2.02-7.45-3.13-11.42-3.21-15.44-.31-26.93-2.13-30.74-4.84l-.11-.08-.12-.07c-.41-.25-10.57-6.78-11.65-25.1-.41-6.99,0-12.96,1.2-17.72,.82-3.23,3.19-5.85,6.35-7.01,11.16-4.09,40.88-18.46,75.57-63.35,1.16-1.5,1.55-3.42,1.07-5.26-.47-1.81-1.73-3.26-3.44-3.98-3.58-1.52-12-7.35-12.83-28.75-.7-18.29,2.79-26.33,5.6-32.78,1.5-3.45,2.93-6.73,3.38-10.79,6.46,.73,21.93,3.7,32.17,15.66,8.27,9.65,9.83,17.19,11.08,23.25,.89,4.3,1.73,8.37,4.66,11.89l4.11,4.94c.94,1.12,2.3,1.76,3.75,1.76,2.36,0,4.39-1.68,4.82-4,.94-5.07,3.79-18,10-28.65,4.25-7.29,10.63-14.17,16.25-20.25,4.23-4.57,8.25-8.92,11-13,7.51,5.13,26.97,20.32,33.48,43.78,.73,2.65,3.15,4.49,5.89,4.49,.97,0,1.94-.24,2.81-.69,13.46-7.01,61.85-30.14,119.38-33.22,18.55-.99,33.98-1.46,48.57-1.46,74.61,0,131.41,12.65,178.75,39.81,8.57,4.92,16.57,10.3,23.76,16l6.16,4.88-.49-7.84c-.17-2.65-.06-4.76,.06-6.06,1.28-14.09,7.32-24.99,17.96-32.42,7.46-5.21,14.55-6.77,15.46-6.96,.49-.05,2.56-.24,5.55-.24,15.45,0,41.37,4.48,41.37,34.45,0,12.78-4.68,25.72-13.91,38.46l-5.4,7.45,8.99-1.98c18.31-4.03,26.97-20.15,30.7-30.39,3.79,8.41,2.73,16.87-3.16,25.17-7.26,10.23-19.32,16.34-32.28,16.34h0c-.33,0-.67,0-1.01-.01-3.47-.09-6.91-.29-10.23-.61l-1.57-.15-1.15,1.07c-3.94,3.66-8.16,7.17-12.56,10.41l-2.22,1.64,1.08,2.54c10.44,24.59,14.1,53.19,11.19,87.45-3.27,38.4-28.12,77.11-44.56,102.72-7.85,12.23-13.53,21.07-14.8,26.57-.36,1.57-.75,3-1.1,4.26-1.19,4.34-2.22,8.08,.08,11.47,2.79,4.11,2.66,9.84-.31,14.27-8.77,13.08-19.76,31.2-22.29,43.2-1,4.75-4.27,8.56-8.54,9.93-1.04,.33-1.69,.4-2.05,.4ZM28.87,280.15l8.84,20.52,10.33-4.45-8.83-20.52-10.33,4.45Zm94.03-48.26c-7.28,0-13.2,7.28-13.2,16.24s5.92,16.24,13.2,16.24,13.2-7.28,13.2-16.24-5.92-16.24-13.2-16.24Zm538.78-92.12c-10.67,0-19.99,3.54-25.57,9.71-4.79,5.29-6.89,12.47-6.06,20.76,1.83,18.33,12.43,30.37,29.83,33.89,1.87,.38,3.78,.57,5.68,.57,9.89,0,19-5.14,23.78-13.41,4.73-8.19,8.44-16.22,5.86-31.68-2.15-12.89-18.88-19.84-33.53-19.84Z"/><path class="cls-5" d="M203.69,114.16c8.4,6.24,23.8,19.96,29.32,39.85,1.15,4.16,4.96,7.06,9.26,7.06,1.53,0,3.06-.38,4.43-1.09,13.3-6.93,61.12-29.79,117.95-32.83,18.49-.99,33.86-1.45,48.38-1.45,33.37,0,62.55,2.52,89.21,7.7,32.73,6.35,62.26,17,87.79,31.65,8.42,4.83,16.27,10.12,23.33,15.71l12.31,9.76-.98-15.68c-.15-2.43-.06-4.34,.05-5.52,2.69-29.54,27.74-35.65,30.46-36.22,.63-.06,2.46-.21,5.04-.21,5.41,0,15.75,.69,24.15,5.27,6.23,3.41,10.31,8.34,12.29,14.95-2.36-4.55-6.49-8.5-12.07-11.45-6.57-3.47-14.71-5.39-22.92-5.39-11.83,0-21.83,3.86-28.17,10.86-5.47,6.05-7.87,14.16-6.94,23.46,2,19.99,13.58,33.12,32.62,36.97,2.1,.42,4.24,.64,6.38,.64,6.23,0,12.2-1.82,17.19-5.07l-8.34,11.52-1.91-.18-2.31,2.15c-3.84,3.57-7.96,6.99-12.25,10.15l-4.45,3.28,2.16,5.09c10.21,24.05,13.79,52.11,10.92,85.78-3.19,37.53-27.76,75.8-44.02,101.13-8.34,13-13.85,21.58-15.26,27.67-.35,1.5-.71,2.83-1.07,4.12-1.3,4.74-2.64,9.64,.56,14.36,1.99,2.94,1.87,7.1-.32,10.36-13.01,19.4-20.68,34.35-22.81,44.42-.74,3.53-3.11,6.33-6.18,7.32-.37,.12-.63,.18-.79,.21-.69-.28-1.46-.95-2.1-1.84-1.76-2.44-4.59-3.89-7.57-3.89-.94,0-1.86,.14-2.76,.42-7.22,2.25-13.84,3.75-17.91,4.09-.13-.59-.34-1.18-.62-1.74-1.24-2.41-3.68-3.91-6.39-3.91-1.21,0-2.4,.31-3.46,.89-.36,.2-.73,.38-1.1,.53,1.09-3.44,3.45-9.08,7.6-16.8,1.52-2.83,2.32-6.03,2.32-9.26v-37.88c0-10.22-7.3-18.93-17.35-20.7-6.24-1.1-11.74-2.51-16.37-4.2-7.93-2.88-15.42-5.76-20.3-7.67-2.89-1.13-5.93-1.7-9.02-1.7-1.73,0-3.46,.18-5.15,.54-15.46,3.29-56.45,10.93-103.1,10.93-10.93,0-21.56-.43-31.61-1.28-53.04-4.49-76.5-13.71-84.12-17.46-1.57-.77-3.33-1.18-5.07-1.18-4.81,0-9.16,3.04-10.81,7.56-4.48,12.23-12.14,35.04-13.1,50.36-.89,14.24-1.78,23.23-2.17,26.76-.69,.49-2.16,1.34-4.9,2.12l-5.19,1.48c-3.51,1-6.39,3.54-7.87,6.82-.73,.03-1.52,.05-2.31,.05-2.56,0-3.87-.26-4.48-.45-1.37-2.87-4.56-5.75-10.97-5.75-4.89,0-8.21,2.43-10.4,4.04-.36,.27-.82,.6-1.15,.81-3.13-.02-5.4-.17-7.03-.36,2.02-2.51,5.29-6.12,10.01-10.63,1.98-1.89,3.26-4.41,3.62-7.12,1.96-14.87,8.19-64.85,5.83-83.71-1.06-8.48-10.28-14.09-21.95-21.19-6.13-3.73-12.47-7.59-17.45-11.82-2.38-2.02-4.37-4.5-5.91-7.36-2.42-4.5-6.51-11.8-12.26-21.08-4.42-7.13-11.46-12.91-20.94-17.17-13.8-6.21-24.2-11.24-29.26-14.16-4.01-2.31-8.54-3.58-13.1-3.67-16.29-.33-26.19-2.34-28.78-4.19l-.12-.11-.3-.17c-.38-.26-2.38-1.69-4.49-4.75l5.15-2.22,3.9-1.68,6.43-2.77-2.77-6.43-6.07-14.09-2.77-6.43-6.43,2.77-2.69,1.16c.2-1.64,.48-3.17,.83-4.55,.54-2.11,2.09-3.82,4.16-4.58,34.37-12.6,65.39-49.3,77.14-64.5,1.83-2.37,2.44-5.39,1.68-8.28-.75-2.87-2.74-5.17-5.46-6.32-2.97-1.26-9.95-6.27-10.69-25.66-.67-17.49,2.51-24.8,5.31-31.25,1.12-2.58,2.27-5.22,3.01-8.24,7.01,1.22,18.64,4.62,26.67,13.99,7.69,8.97,9.08,15.72,10.31,21.68,.94,4.54,1.9,9.23,5.4,13.42l4.12,4.94c1.6,1.92,3.95,3.02,6.44,3.02,4.05,0,7.52-2.89,8.26-6.87,.91-4.89,3.65-17.35,9.58-27.52,4.06-6.95,10.29-13.69,15.79-19.63,3.36-3.63,6.59-7.12,9.22-10.51m-80.79,153.7c9.37,0,16.7-8.67,16.7-19.74s-7.34-19.74-16.7-19.74-16.7,8.67-16.7,19.74,7.34,19.74,16.7,19.74m597.75-79.13c-.31,3.91-1.87,7.82-4.68,11.78-6.6,9.31-17.6,14.86-29.42,14.86-.31,0-.61,0-.92-.01-3.37-.08-6.7-.28-9.91-.59l16.32-3.6c7.38-1.63,19.74-6.7,28.61-22.45M202.5,105.23c-.71,0-1.39,.36-1.8,1.01-5.77,9.38-20.11,20.89-28.07,34.53-6.4,10.97-9.36,24.02-10.42,29.77-.13,.72-.75,1.14-1.38,1.14-.39,0-.78-.16-1.07-.5l-4.12-4.94c-6.06-7.28-1.21-18.19-15.77-35.17-11.95-13.94-30.03-16.54-36.12-17.02-.05,0-.1,0-.16,0-1.03,0-1.88,.82-1.93,1.87-.5,11.57-10.25,15.58-9.1,45.48,.88,22.77,9.97,29.73,14.96,31.84,1.52,.64,1.97,2.57,.96,3.88-34.02,44.02-62.82,58.1-74.01,62.21-4.23,1.55-7.43,5.07-8.53,9.43-1.05,4.15-1.81,10.21-1.3,18.79,1.21,20.62,13.34,27.9,13.34,27.9,6.1,4.36,23.44,5.31,32.7,5.5,3.43,.07,6.77,1.03,9.74,2.74,6.9,3.97,20.73,10.36,29.88,14.48,7.11,3.2,13.75,7.85,17.86,14.48,5.75,9.28,9.8,16.54,12.05,20.71,1.92,3.57,4.46,6.76,7.55,9.38,13.73,11.65,35.92,20.09,36.98,28.54,2.31,18.52-4.46,71.56-5.83,81.92-.15,1.14-.69,2.18-1.52,2.98-3.76,3.59-14.49,14.2-14.49,18.2,0,4.85,13.34,4.85,16.98,4.85s6.06-4.85,10.92-4.85,4.85,2.43,4.85,2.43c1.62,3.23,6.47,3.77,10.6,3.77,2.07,0,3.95-.13,5.17-.13,1.91,0,2.82-1.68,3.25-3.27,.49-1.81,1.89-3.22,3.69-3.74l5.19-1.48c3.97-1.13,6.35-2.54,7.76-3.71,1.21-1,1.96-2.44,2.13-4,.39-3.51,1.31-12.67,2.24-27.47,.93-14.86,8.97-38.24,12.68-48.39,.68-1.85,2.41-2.97,4.24-2.97,.66,0,1.34,.15,1.98,.46,8.98,4.42,33.35,13.64,86.62,18.15,10.84,.92,21.66,1.31,32.2,1.31,47.9,0,90.25-8.04,104.56-11.08,1.22-.26,2.46-.39,3.69-.39,2.2,0,4.4,.41,6.48,1.22,4.77,1.86,12.39,4.79,20.45,7.72,5.9,2.14,12.27,3.58,17.54,4.51,6.7,1.18,11.57,7.01,11.57,13.81v37.88c0,2.07-.51,4.12-1.49,5.94-3.58,6.66-12.09,23.5-8.21,26.4,1.32,.99,2.83,1.35,4.31,1.35,2.81,0,5.57-1.29,6.93-2.04,.03-.02,.06-.02,.09-.02,.13,0,.24,.16,.15,.28-1.02,1.42-2.37,4.37,3.08,5.28,.66,.11,1.41,.16,2.23,.16,6.53,0,17.41-3.18,21.56-4.47,.22-.07,.45-.1,.68-.1,.74,0,1.44,.36,1.89,.99,1.1,1.53,3.23,3.86,6.39,4.65,.37,.09,.77,.14,1.2,.14,.95,0,2.02-.22,3.12-.57,5.64-1.81,9.67-6.74,10.89-12.54,2.45-11.62,13.58-29.75,21.77-41.97,3.67-5.48,4-12.73,.3-18.19-1.86-2.74,.01-6.4,1.53-12.98,3.64-15.77,54.58-72.78,59.43-129.78,2.49-29.31,.82-60.22-11.45-89.11,3.61-2.66,8.12-6.25,12.86-10.66,3.3,.32,6.79,.54,10.48,.63,.36,0,.73,.01,1.09,.01,13.86,0,27.1-6.48,35.13-17.81,5.67-8,8.83-18.35,2.74-30.19-.54-1.04-1.54-1.55-2.54-1.55-1.14,0-2.27,.66-2.69,1.93-3.08,9.12-11,25.7-28.66,29.59,8.22-11.34,14.57-25.1,14.57-40.51,0-34.25-31.35-37.95-44.87-37.95-3.71,0-6.08,.28-6.08,.28,0,0-33.06,5.96-36.39,42.52-.16,1.73-.23,3.99-.07,6.59-7.2-5.7-15.23-11.15-24.19-16.29-57.23-32.84-122.45-40.27-180.49-40.27-17,0-33.37,.64-48.75,1.46-58.8,3.15-108.52,27.21-120.81,33.61-.39,.2-.79,.3-1.19,.3-1.13,0-2.19-.74-2.51-1.93-7.22-26.03-29.47-42.21-36.12-46.56-.35-.23-.75-.34-1.14-.34h0Zm463.07,95.96c-1.66,0-3.33-.16-4.99-.5-11.02-2.23-24.9-9.36-27.04-30.81-1.89-18.92,12.95-26.62,28.14-26.62,14.03,0,28.35,6.56,30.08,16.92,2.43,14.56-1.03,21.71-5.44,29.35-4.3,7.44-12.34,11.67-20.75,11.67h0ZM122.9,260.86c-5.36,0-9.7-5.7-9.7-12.74s4.34-12.74,9.7-12.74,9.7,5.7,9.7,12.74-4.34,12.74-9.7,12.74h0Zm-83.37,35.21l-6.07-14.09,3.9-1.68,6.07,14.09-3.9,1.68h0Z"/></g><path class="cls-4" d="M77.53,315.27c-1.81-.23-3.07-1.91-2.79-3.72,.63-4.09,2.52-10.7,8.18-13.53,2.12-1.06,24.43-7.43,47.79,2.12,21.17,8.66,20.18,15.93,21.24,24.43,.72,5.76-5.39,15.9-9.4,21.85-1.49,2.21-4.71,2.3-6.31,.17-3.94-5.23-12.17-14-26.77-20.96-15.87-7.56-26.9-9.74-31.94-10.37Z"/><path class="cls-4" d="M312.1,153.83c-.68-3.82,1.11-7.64,4.46-9.61,8.92-5.23,28.62-14.7,55.05-15.24,24.49-.5,47.15-.33,59.48-.17,5.34,.07,9.32,4.97,8.26,10.2-3.74,18.46-17.03,56.45-63.31,62.27-49.34,6.21-61.18-32.06-63.94-47.46Z"/><path class="cls-2" d="M450.61,141.97c1.2-5.89,6.53-10,12.53-9.66,14.57,.81,40.52,2.72,53.64,6.49,14.27,4.1,43.7,16.78,57.16,22.7,4.2,1.85,6.68,6.22,6.12,10.78-.87,6.99-2.25,16.93-3.64,21.78-.87,3.03-2.23,6.89-3.58,10.51-2,5.35-8.49,7.42-13.2,4.19-10.09-6.93-27.67-16.56-46.65-15.83-29.45,1.13-43.04,18.12-45.31,29.45-1.46,7.29,2.25,13.65,5.07,17.25,1.13,1.44,.25,3.54-1.56,3.76-6.72,.79-20.01,1.8-31.96-.61-7.97-1.61-14.7-3.97-19.58-6.02-4.4-1.85-7.53-5.76-8.57-10.41-.49-2.2-1.5-5.02-3.43-8.49-1-1.81-1.92-3.38-2.74-4.76-2.79-4.65-1.27-10.66,3.4-13.41,12.47-7.31,33.63-21.28,36.76-33.48,2.3-8.96,4.22-17.78,5.54-24.24Z"/><path class="cls-2" d="M518.51,264.55s44.53,9.72,52.45-11.54c7.91-21.26-19.37-40.5-41.01-45.29-21.65-4.78-43.51,4.19-46.11,14.98-2.6,10.79-5.05,27.43,34.67,41.85Z"/><path class="cls-4" d="M647.59,238.26c-2.61-3.75-7.92-4.36-11.25-1.23-9.16,8.63-28.07,30.36-29.12,63.54-.93,29.31,16.47,51.49,28.13,62.99,4.7,4.64,12.64,2.76,14.82-3.48,5.06-14.42,12.44-38.97,12.48-59.51,.04-24.58-7.25-51.07-15.06-62.31Z"/><path class="cls-4" d="M589.35,196.89c-.2-2.14,2.24-3.51,3.98-2.24,6.93,5.05,19.38,14.48,23.52,20.01,3.56,4.74,7.83,10.56,10.64,14.4,1.64,2.24,1.27,5.36-.85,7.15-8.98,7.64-30.5,30.08-31.27,70.22-.79,40.87,25.01,55.8,35.09,60.07,2.31,.98,3.55,3.49,2.91,5.91-1.35,5.13-4.08,13.74-8.61,20.81-3.55,5.54-6.94,10.27-9.41,13.56-2.5,3.34-6.4,5.32-10.57,5.43-14.72,.37-49.9-2.08-66.8-31.67-20.87-36.54-18.56-56.81-2.02-96.59,1.17-2.82,3.97-4.6,7.02-4.51,11.25,.34,37.86-.88,41.25-19.55,2.5-13.75,.8-19.64-1.08-22.16-1.3-1.74-1.47-4.06-.49-6,3.15-6.23,8.21-19.04,6.7-34.85Z"/><path class="cls-4" d="M579.65,506.52s-13.69-1.86-18.54-23.7c-3.89-17.51,2.72-38.63,5.49-46.3,.59-1.63,2.39-2.46,4.01-1.86,5.7,2.08,18.54,6.29,26.62,5.16,1.32-.19,2.44,.98,2.26,2.3-.82,6.16-2.24,20.28,.83,26.02,.86,1.59,1.11,3.43,.51,5.14-3.41,9.55-13.88,36.8-21.19,33.25Z"/><path class="cls-4" d="M268.45,176.31c0-4.11,1.66-8.05,4.64-10.88,3.43-3.27,8.42-7.25,13.75-8.98,3.8-1.23,7.22-1.51,9.98-1.38,3.79,.17,6.66,3.43,6.48,7.21-.57,11.85,1.53,38.27,30.3,46.14,23.42,6.4,36.9,5.05,43.72,3.13,4.35-1.22,9,.55,11.26,4.46,3.89,6.75,7.52,18.4,1.95,35-7.45,22.19-45.61,21.76-61.15,20.62-3.5-.26-6.8-1.84-9.05-4.53-2.48-2.96-7.21-6.9-15.77-9.2-10.14-2.72-23.1-3.71-30.41-4.06-3.19-.15-5.69-2.78-5.69-5.97v-71.55Z"/><path class="cls-4" d="M332.21,339.08c-2.76,.11-4.87-2.42-4.24-5.11,1.5-6.43,3.7-17.1,3.49-23.42-.2-6.03-2.99-14.11-5-19.22-.81-2.06,.98-4.2,3.16-3.76,6.19,1.24,16.61,2.95,24.07,2.2,6.49-.65,11.49-1.66,14.56-2.41,2.55-.62,5.24,.25,6.9,2.28,3.21,3.92,7.42,11.85,6.71,26.05-.58,11.54-2.09,18.37-3.43,22.28-.98,2.85-3.88,4.56-6.86,4.06-4.93-.82-12.9-2.11-18.41-2.78-5.48-.66-14.94-.43-20.96-.18Z"/><path class="cls-4" d="M422.71,245.41c-1.56-.76-3.42,.07-3.89,1.73-1.59,5.62-5.05,17-7.91,20.62-2.69,3.42-14.37,9.56-21.1,12.92-2.32,1.16-2.99,4.13-1.42,6.21,3.71,4.9,8.99,14.31,7.82,27.14-.95,10.46-2.36,17.76-3.47,22.28-.8,3.3,1.49,6.54,4.87,6.85,6.14,.56,15.52,.04,23.23-6.26,12.62-10.33,13.77-45.91,13.77-45.91v-35.94c0-2.35-1.34-4.5-3.46-5.53l-8.45-4.12Z"/><path class="cls-4" d="M290.96,416.34c-2,.67-4.18,.51-6.06-.43-7.75-3.89-28.3-15.42-32.22-30.12-4.85-18.19,6.06-29.49,17.59-28.69,11.52,.79,20.01,6.86,20.01,12.92,0,0,7.28-12.13,25.47-8.49,7.39,1.48,11.4,5.42,13.55,9.58,3.26,6.3,2.49,13.91-1.51,19.77-4.94,7.25-15.57,18.38-36.84,25.46Z"/><text class="cls-6" transform="translate(341 109.87)"><tspan x="0" y="0">肩</tspan></text><text class="cls-6" transform="translate(399.44 109.7)"><tspan x="0" y="0">肩ロース</tspan></text><text class="cls-6" transform="translate(504.59 109.81)"><tspan x="0" y="0">ロース</tspan></text><text class="cls-6" transform="translate(594.34 110.04)"><tspan x="0" y="0">ヒレ</tspan></text><text class="cls-6" transform="translate(635.57 430.65)"><tspan x="0" y="0">もも</tspan></text><text class="cls-6" transform="translate(676.51 359.18)"><tspan x="0" y="0">外もも</tspan></text><text class="cls-6" transform="translate(611.02 504.56)"><tspan x="0" y="0">豚足</tspan></text><path class="cls-2" d="M328.05,408.42c-2.02,1.31-1.85,4.32,.31,5.39,8.42,4.18,25.87,12.2,38.63,13.8,17.44,2.18,91.01-1.61,125.05-6.8,22.32-3.4,33.29-7.85,38.19-10.52,1.82-.99,2.19-3.44,.74-4.92-3.67-3.74-10.17-11.28-14.23-21.16-4.07-9.9-6.88-19.87-8.24-25.12-.55-2.13-2.6-3.5-4.78-3.2-12.36,1.74-49.56,4.14-84.65-.58,0,0-71.7-8.36-76.14-8.36s-4.86,6.29-5.67,10.24c-.36,1.76,.6,3.55,2.27,4.2,9.89,3.86,11.23,16.69,8.93,25.88-2.06,8.23-13.75,16.81-20.41,21.13Z"/><text class="cls-6" transform="translate(396.88 470.89)"><tspan x="0" y="0">ばら</tspan></text><text class="cls-6" transform="translate(486.08 470.25)"><tspan x="0" y="0">カツ</tspan></text><text class="cls-6" transform="translate(465.59 498.18)"><tspan x="0" y="0">レバー</tspan></text><text class="cls-6" transform="translate(59.45 357.01)"><tspan x="0" y="0">タン</tspan></text><text class="cls-6" transform="translate(340.42 471.4)"><tspan x="0" y="0">ハツ</tspan></text><polyline class="cls-7" points="286.63 391.54 327.16 450.54 380.63 450.54"/><polyline class="cls-7" points="286.63 167.54 339.16 90.54 360.63 90.54"/><polyline class="cls-7" points="346.63 167.54 399.16 90.54 477.63 90.54"/><polyline class="cls-7" points="450.63 167.54 503.16 90.54 564.63 90.54"/><polyline class="cls-7" points="501.63 226.54 594.16 90.54 631.63 90.54"/><polyline class="cls-7" points="363.63 410.54 391.16 450.54 436.63 450.54"/><polyline class="cls-7" points="355.63 318.54 465.16 477.54 525.63 477.54"/><polyline class="cls-7" points="405.63 332.54 486.16 449.54 525.63 449.54"/><polyline class="cls-7" points="636.63 283.54 674.16 337.54 733.63 337.54"/><polyline class="cls-7" points="584.63 332.54 639.16 409.54 675.63 409.54"/><polyline class="cls-7" points="585.63 448.54 610.16 483.54 650.63 483.54"/><polyline class="cls-7" points="117.63 314.54 103.09 335.54 59.63 335.54"/></svg>