<?xml version="1.0" encoding="UTF-8"?><svg id="_イヤー_1" xmlns="http://www.w3.org/2000/svg" viewBox="0 0 761 637"><defs><style>.cls-1{fill:#f76262;}.cls-2{fill:#fff;}.cls-3{fill:#edddce;}.cls-4{fill:#f0a2a2;}.cls-5{fill:#293462;}</style></defs><rect class="cls-2" x="74.22" y="196.63" width="49.5" height="49.5" rx="12" ry="12"/><g><path class="cls-3" d="M249.52,560.5c-.19-.4-.31-.9-.23-1.51,.16-1.28,1.28-4.02,6.95-7.96,1.45-1.01,2.29-2.66,2.24-4.42l-2.48-80.56c-.02-.7-.18-1.37-.47-2-9.77-21.15-25.49-62.02-22.42-81.02,.3-1.89-.44-3.78-1.94-4.94-4.35-3.35-26.58-20.68-37.7-32.88-1.49-1.85-21.74-27.47-26.73-56.47-.33-1.93-1.69-3.48-3.56-4.06l-34.43-10.69c-.5-.16-1.02-.23-1.54-.23-1.58,0-3.05,.71-4.04,1.94-16.21,20.24-30.58,35.8-34.17,37-.09,.03-.61,.18-1.94,.18-5.69,0-17-2.64-27.63-7.67-12.46-5.91-20.96-13.67-23.94-21.85-3.35-9.2,9.58-28.02,16.89-36.69,.24-.28,.45-.6,.63-.94,5.45-10.32,7.32-23.15,9.14-35.56,1.64-11.23,3.19-21.83,7.17-29.79,6.9-13.79,12.96-22.82,15.24-26.06,1.49-2.11,1.18-5.02-.72-6.77-15.04-13.86-23.92-23.64-25.36-26.63,.96-1.17,5.3-3.52,12.09-3.52,3.73,0,7.37,.76,10.53,2.2,6.2,2.83,10.74,6.83,13.46,9.68,.99,1.04,2.32,1.62,3.73,1.62,1.64,0,3.21-.79,4.19-2.12,.98-1.32,1.26-3,.77-4.59-1.16-3.79-2.59-6.49-4.38-8.28-1.45-1.45-2.59-3.27-3.34-4.81,3.04,1.04,7.32,2.97,10.09,5.04,3.65,2.74,6.61,6.23,7.71,7.6,.95,1.18,2.36,1.88,3.87,1.92,2.63,.07,12.01,.55,22.24,3.62,11.12,3.33,31.45,17.66,33.73,19.29,.88,.62,1.9,.95,2.98,.95,.14,0,.28,0,.43-.02,.62-.05,1.92-.14,3.66-.14,5.52,0,15.41,.85,23.22,6.16-2.23,.81-5.61,1.68-10.48,2.17-2.8,.28-4.8,2.61-4.66,5.41,.14,2.81,2.35,4.92,5.15,4.92h.22c2.49-.1,5.12-.4,7.82-.89,4.97-.9,7.86-2.98,10.91-5.18,6.36-4.58,15.97-11.49,57.98-14.92,5.85-.48,12.75-.72,20.51-.72,38.27,0,93.51,5.88,137.89,10.6,33,3.51,61.5,6.54,76.23,6.54,1.12,0,2.17-.02,3.13-.05,14.31-.53,29.16-2.62,43.52-4.63,16.75-2.35,32.57-4.58,47.72-4.58,3.37,0,6.63,.12,9.7,.34,4.37,2.05,46.9,22.58,63.03,53.14,.74,3.45,5.38,25.02,10.03,41.31,5.12,17.94,7.42,43.42,7.42,60.72v25.91c0,2.56,1.85,4.71,4.39,5.11,.56,.09,1.43,.47,2.37,1.78,2.45,3.39,5.81,13.52,.86,43.3-.33,1.31-4.02,14.84-21.54,30.36l-1.41-11.97c-.31-2.61-2.52-4.57-5.15-4.57-.7,0-1.39,.14-2.02,.42-1.24-16.61-1.43-35.94,1.58-43.75,3.4-8.83,4.31-11.2,12.93-16.69,1.51-.96,2.41-2.59,2.41-4.37v-44.21c0-.38-.04-.76-.12-1.13-7.81-35.06-24.18-77.44-46.67-91.22-.82-.5-1.75-.76-2.7-.76-1.42,0-2.8,.6-3.78,1.64-.99,1.05-1.48,2.42-1.39,3.87,.48,7.61,1.92,26.31,5.04,35.66,.77,2.32,1.6,4.55,2.41,6.71,3.2,8.6,6.23,16.73,6.23,31.21,0,10.72-2.57,33.81-4.63,52.36-1.57,14.1-2.92,26.28-2.92,30.72,0,4.17,.98,13.63,2.12,24.59,1.63,15.71,3.66,35.27,2.94,41.74-.51,4.57-4.07,9.97-7.84,15.68-4.49,6.81-9.58,14.52-11.02,23.15-.62,3.71-1.33,7.11-2.02,10.4-2.11,10.08-4.29,20.51-4.32,41.34,0,.86,.21,1.71,.62,2.47,1.43,2.66,3.12,6.24,4,9.03-.22,0-.43-.01-.63-.01-.88,0-3.55,0-4.99,2.05-.95,1.35-1.04,2.57-.95,13.05,.03,3.29,.07,8.28-.07,11.04-1.46,.08-4.03,.15-8.51,.15-8.55,0-19.86-.27-25.84-.42-.54-.01-.86-.31-1.01-.49-.14-.17-.36-.52-.28-1.01,.52-3.19,2.05-8.56,6.41-16.03,5.09-8.72,9.43-20.68,10.25-22.99,.2-.55,.3-1.13,.3-1.72v-49.97c0-.2-.01-.4-.03-.6l-6.72-58.25c-.31-2.66-2.47-4.58-5.15-4.58-2.2,0-4.11,1.34-4.86,3.42l-17.48,48.55c-1.89,5.26-3.36,10.72-4.36,16.22l-8.49,46.7c-.24,1.34,.04,2.69,.8,3.82,5.09,7.56,7,12.98,6.68,14.26-.07,.3-.15,.39-.15,.39-.04,.02-.25,.11-.7,.11-.22,0-.46-.02-.72-.06-.26-.04-.52-.06-.77-.06-1.4,0-2.76,.59-3.73,1.61-.98,1.04-1.51,2.45-1.43,3.88,.42,7.99-.01,12.07-.41,13.61-1.54,.31-6.12,.84-19.22,.84-3.73,0-7.82-.04-12.18-.13-.72-.01-1.11-.45-1.27-.71-.17-.26-.4-.79-.12-1.45,1.09-2.55,2.56-6.04,4.55-10.81,5.75-13.8,9.37-23.32,10.04-25.08,.16-.42,.26-.86,.31-1.31l4.11-42.17c.61-6.27,.82-12.64,.63-18.93l-2.18-72.01c-.09-2.82-2.36-5.02-5.17-5.02-.18,0-.36,0-.54,.03l-46.04,4.85c-.32,.04-26.91,3.25-68.7,3.25-10.98,0-22.18-.22-33.27-.66h-.2c-2.33,0-4.38,1.56-4.99,3.79-2.17,7.96-9.26,34.83-9.26,46.19,0,8.05,1.49,15.67,2.58,21.23,.64,3.28,1.2,6.11,1.2,7.72,0,.99-.96,4.71-1.89,8.3-3.03,11.73-8.09,31.36-8.18,54.03,0,1.16,.39,2.3,1.1,3.22,2.28,2.91,4.68,7.42,4.42,11.06-3.66,2.39-3.54,8.87-2.99,14.38,.54,5.36-.62,6.51-.63,6.52-.1-.01-.16-.02-.18-.03-.42-.11-.86-.17-1.31-.17h-25.8c.64-2.51,2.37-6.53,7-11.29,.95-.98,1.47-2.26,1.47-3.61v-87.11c0-.68-.13-1.34-.39-1.96-1.32-3.21-13.05-31.68-17.45-43.64-5.31-14.41-8.32-25.57-9.9-32.39-.55-2.36-2.62-4-5.04-4-2.28,0-4.26,1.46-4.94,3.64-3.69,11.84-12.49,40.99-14.53,55.93-.06,.46-.06,.91,0,1.37,1.34,10.1,3.11,29.37,1.28,37.59-.8,3.58-2.2,6.75-3.69,10.09-3.03,6.81-6.46,14.53-6.46,28.43,0,11.83,1.67,17.85,2.9,22.25,.56,2.01,.97,3.48,1.06,4.96-4.64,2.37-5.22,10.6-5.22,16.85-.04,1.57-.76,5.31-6.57,5.31h-21.85ZM98.91,200.48c-7.48,0-13.57,7.5-13.57,16.72s6.09,16.72,13.57,16.72,13.57-7.5,13.57-16.72-6.09-16.72-13.57-16.72Z"/><path class="cls-5" d="M105.8,120.83c2.37,2.14,4.19,4.34,4.81,5.1,1.59,1.98,3.96,3.16,6.5,3.23,2.52,.07,11.51,.52,21.33,3.47,8.59,2.58,24.6,13.02,32.7,18.79,1.47,1.05,3.2,1.6,5,1.6,.23,0,.47,0,.72-.03,.56-.05,1.75-.13,3.37-.13,2.97,0,7.31,.26,11.8,1.42-4.38,.72-7.45,4.49-7.22,8.99,.23,4.7,3.95,8.25,8.65,8.25,.12,0,.24,0,.36,0,2.65-.1,5.44-.42,8.31-.94,5.75-1.05,9.1-3.45,12.33-5.78,6.04-4.35,15.18-10.92,56.22-14.27,5.76-.47,12.56-.71,20.23-.71,38.08,0,93.22,5.87,137.52,10.58,33.1,3.52,61.68,6.56,76.6,6.56,1.17,0,2.26-.02,3.26-.06,14.49-.54,29.43-2.64,43.88-4.67,16.63-2.34,32.33-4.54,47.23-4.54,3.05,0,6.01,.1,8.79,.29,6.47,3.09,45.38,22.58,60.61,50.91,1,4.66,5.48,25.3,9.98,41.06,2.06,7.2,3.65,15.66,4.82,24.3-5.06-18.56-11.37-34.72-18.83-48.19-8.01-14.47-16.92-24.98-25.75-30.39-1.37-.84-2.93-1.28-4.52-1.28-2.39,0-4.69,1-6.33,2.74-1.63,1.74-2.48,4.1-2.33,6.48,.6,9.62,2.08,27.16,5.21,36.55,.79,2.38,1.63,4.64,2.45,6.82,3.09,8.3,6.01,16.14,6.01,29.99,0,10.52-2.56,33.51-4.61,51.97-1.82,16.41-2.94,26.69-2.94,31.11s.94,13.44,2.14,24.95c1.53,14.73,3.62,34.89,2.94,40.99-.41,3.73-3.75,8.79-7.28,14.14-4.68,7.1-9.99,15.14-11.55,24.5-.61,3.63-1.28,6.85-1.99,10.26-2.15,10.26-4.37,20.86-4.4,42.06,0,1.44,.36,2.87,1.04,4.13,.83,1.54,1.6,3.11,2.24,4.57-1.51,.59-2.73,1.53-3.65,2.84-1.69,2.41-1.67,4.59-1.58,15.09,.02,2.16,.04,5.13,.02,7.62-1.31,.02-2.98,.04-5.1,.04-7.39,0-16.86-.2-23.13-.35,.78-2.94,2.35-7.04,5.44-12.34,5.24-8.99,9.69-21.22,10.53-23.58,.33-.93,.5-1.91,.5-2.9v-49.97c0-.33-.02-.66-.06-.99l-6.72-58.25c-.5-4.38-4.22-7.68-8.63-7.68-3.7,0-6.9,2.25-8.15,5.74l-17.48,48.55c-1.96,5.44-3.48,11.09-4.51,16.78l-8.49,46.7c-.41,2.24,.07,4.51,1.34,6.4,2.59,3.85,4.34,7.17,5.28,9.42-1.63,.38-3.14,1.24-4.31,2.47-1.64,1.73-2.51,4.09-2.39,6.47,.25,4.73,.18,8.16,0,10.3-2.54,.23-7.33,.48-16.13,.48-2.88,0-5.97-.03-9.24-.08,1-2.37,2.15-5.11,3.43-8.17,5.76-13.82,9.41-23.41,10.08-25.2,.27-.71,.44-1.45,.52-2.21l4.11-42.17c.63-6.41,.84-12.93,.65-19.38l-2.18-72.01c-.14-4.72-3.95-8.42-8.67-8.42-.3,0-.61,.02-.91,.05l-46.04,4.85h-.12c-.26,.05-26.67,3.23-68.21,3.23-10.94,0-22.08-.22-33.13-.66-.12,0-.23,0-.35,0-3.9,0-7.34,2.62-8.36,6.37-2.82,10.34-9.38,35.64-9.38,47.11,0,8.39,1.53,16.2,2.65,21.9,.54,2.78,1.1,5.64,1.13,6.96-.1,1.05-.99,4.48-1.77,7.52-2.87,11.11-8.2,31.78-8.29,54.89,0,1.95,.65,3.86,1.85,5.39,1.7,2.16,3.26,5.09,3.62,7.37-4.1,4.48-3.27,12.77-2.92,16.26,.1,1.03,.13,1.84,.12,2.47h-19.27c.94-1.56,2.28-3.37,4.21-5.35,1.59-1.63,2.46-3.78,2.46-6.05v-87.1c0-1.14-.22-2.25-.65-3.3-1.32-3.2-13.03-31.65-17.4-43.51-5.25-14.24-8.21-25.25-9.78-31.98-.92-3.95-4.39-6.71-8.45-6.71-3.82,0-7.14,2.45-8.28,6.1-4.62,14.81-12.66,41.84-14.66,56.51-.1,.76-.1,1.53,0,2.29,1.22,9.19,3.06,28.61,1.34,36.37-.72,3.24-2,6.11-3.47,9.43-3.01,6.78-6.77,15.21-6.77,29.86,0,12.3,1.82,18.86,3.03,23.19,.27,.98,.49,1.76,.64,2.43-4.87,4.6-4.93,14.08-4.93,18.29-.12,1.44-.93,1.95-3.07,1.95h-16.9c.81-.84,2.01-1.87,3.77-3.09,2.43-1.69,3.83-4.45,3.74-7.4l-2.48-80.56c-.04-1.18-.3-2.31-.79-3.37-8.94-19.36-25.08-60.79-22.14-79,.51-3.16-.74-6.32-3.26-8.27-4.3-3.31-26.24-20.41-37.18-32.39-1.7-2.13-21.14-26.89-25.94-54.78-.56-3.23-2.84-5.84-5.97-6.81l-34.43-10.69c-.84-.26-1.7-.39-2.57-.39-2.65,0-5.11,1.19-6.77,3.25-16.64,20.77-29.03,33.79-32.56,35.84-.17,.02-.43,.03-.82,.03-11.39,0-42.22-10.57-48.28-27.22-.45-1.23-1.36-6.2,5.74-18.32,4.52-7.71,9.93-14.2,10.52-14.9,.41-.48,.76-1.01,1.06-1.58,5.73-10.85,7.65-23.99,9.5-36.69,1.6-10.94,3.11-21.28,6.84-28.73,6.79-13.58,12.73-22.43,14.97-25.61,2.5-3.54,1.98-8.42-1.21-11.36-11.33-10.44-19.19-18.6-22.71-22.95,1.64-.58,4.04-1.12,7.07-1.12,3.23,0,6.37,.65,9.08,1.89,5.69,2.6,9.87,6.28,12.37,8.91,1.66,1.75,3.88,2.71,6.26,2.71,2.75,0,5.37-1.32,7.01-3.54,1.65-2.22,2.12-5.03,1.3-7.7-.25-.82-.51-1.59-.79-2.32m-6.89,116.58c9.57,0,17.07-8.88,17.07-20.22s-7.5-20.22-17.07-20.22-17.07,8.88-17.07,20.22,7.5,20.22,17.07,20.22m587.78,101.45c1.07,2.68,3.45,4.71,6.44,5.28,.7,.68,6.2,7.35,.63,40.95-.33,1.21-3.35,11.34-15.45,23.73l-.59-5.02c-.47-3.96-3.56-7.04-7.41-7.58-1.17-18.16-.59-32.96,1.6-38.67,3.3-8.58,3.89-10.12,11.54-14.99,1.44-.92,2.55-2.2,3.24-3.7M92.31,106.8c-.45,0-.78,.08-.95,.25-1.26,1.26,1.26,7.55,5.04,11.33,1.58,1.58,2.71,4.25,3.5,6.83,.37,1.21-.59,2.19-1.62,2.19-.41,0-.84-.16-1.19-.53-3.14-3.3-7.99-7.47-14.54-10.45-3.93-1.79-8.1-2.52-11.98-2.52-8.56,0-15.71,3.54-15.71,7,0,4.44,21.49,24.5,26.61,29.22,.62,.57,.72,1.49,.23,2.18-2.21,3.14-8.46,12.4-15.51,26.51-8.78,17.57-6.31,46.4-16.27,65.29-.06,.11-.13,.22-.21,.31-1.77,2.1-22.32,26.89-17.5,40.14,7.66,21.08,42.65,31.83,54.86,31.83,1.29,0,2.32-.12,3.05-.36,6.85-2.28,31.31-32.54,35.8-38.14,.32-.4,.8-.62,1.3-.62,.17,0,.34,.02,.5,.08l34.43,10.69c.6,.19,1.04,.69,1.15,1.31,5.23,30.33,26.51,56.89,27.49,58.11,.02,.03,.05,.05,.07,.08,11.3,12.42,33.68,29.86,38.19,33.33,.49,.38,.72,.99,.62,1.61-3.97,24.62,20.62,78.55,22.7,83.05,.09,.2,.14,.42,.15,.64l2.48,80.56c.02,.57-.27,1.11-.74,1.44-11.58,8.04-8.41,13.58-6.93,15.29,.31,.36,.77,.55,1.25,.55h22.82c10.07,0,10.07-8.81,10.07-8.81,0-11.42,2.45-13.64,3.93-13.95,.71-.15,1.24-.78,1.28-1.5,.36-6.42-3.96-9.96-3.96-28.61,0-20.14,7.55-26.44,10.07-37.76,2.39-10.74-.88-36.2-1.23-38.81-.02-.15-.02-.29,0-.44,1.99-14.56,10.53-42.92,14.41-55.36,.25-.79,.92-1.18,1.6-1.18,.72,0,1.43,.44,1.63,1.29,1.53,6.56,4.57,17.99,10.03,32.81,4.42,11.99,16.17,40.52,17.5,43.76,.08,.2,.12,.41,.12,.63v87.1c0,.44-.18,.86-.48,1.17-6.75,6.95-8.1,12.69-8.32,15.45-.08,.98,.69,1.78,1.68,1.78h27.95c.14,0,.27,.02,.41,.05,.21,.06,.59,.13,1.05,.13,1.85,0,5.06-1.26,4.15-10.36-.88-8.81,.71-10.84,1.74-11.26,.54-.22,.97-.64,1.09-1.21,1.27-6.25-3.6-13.01-4.98-14.78-.23-.3-.36-.66-.36-1.04,.13-31.21,10.07-57.34,10.07-62.34s-3.78-16.36-3.78-28.95c0-11.14,7.43-39,9.14-45.27,.2-.73,.86-1.22,1.61-1.22,.02,0,.04,0,.07,0,11.97,.47,23.16,.66,33.41,.66,42.54,0,69.07-3.27,69.07-3.27l46.04-4.85c.06,0,.12,0,.18,0,.89,0,1.65,.71,1.67,1.63l2.18,72.01c.19,6.17-.02,12.34-.62,18.48l-4.11,42.17c-.01,.15-.05,.28-.1,.42-.56,1.49-4.22,11.11-9.99,24.97-1.98,4.76-3.45,8.24-4.53,10.78-1.41,3.3,.97,6.96,4.55,7.03,3.5,.07,7.85,.13,12.26,.13,10.07,0,20.45-.31,21.71-1.57,1.93-1.93,1.64-11.96,1.4-16.56-.05-.98,.72-1.81,1.67-1.81,.08,0,.16,0,.25,.02,.39,.06,.81,.1,1.25,.1,1.73,0,3.62-.63,4.25-3.15,1.1-4.4-5.5-14.58-7.17-17.07-.24-.36-.33-.8-.26-1.23l8.49-46.7c.97-5.33,2.38-10.57,4.21-15.66l17.48-48.55c.27-.75,.92-1.11,1.57-1.11,.78,0,1.57,.52,1.68,1.49l6.72,58.25c0,.06,.01,.13,.01,.19v49.97c0,.19-.03,.37-.09,.55-.68,1.92-5.01,13.87-9.98,22.39-4.5,7.71-6.23,13.46-6.84,17.23-.47,2.87,1.74,5.49,4.65,5.56,6.26,.17,17.41,.42,25.93,.42,6.26,0,11.09-.14,11.51-.56,1.26-1.26,0-23.92,.88-25.18,.29-.42,1.13-.56,2.12-.56,.89,0,1.9,.11,2.74,.24,.08,.01,.17,.02,.25,.02,.99,0,1.78-.88,1.65-1.91-.54-4.18-4.05-10.89-4.93-12.53-.13-.24-.2-.53-.2-.8,.04-27.35,3.79-36.15,6.29-51.17,2.52-15.11,17.62-27.69,18.88-39.02s-5.04-56.65-5.04-66.72,7.55-64.2,7.55-83.08-5.04-27.69-8.81-39.02c-3-9-4.41-27.53-4.86-34.77-.06-1.03,.77-1.79,1.67-1.79,.29,0,.59,.08,.87,.25,13.79,8.45,33.28,36.05,45.08,89,.03,.12,.04,.25,.04,.37v44.21c0,.57-.3,1.11-.79,1.42-9.35,5.95-10.67,8.9-14.32,18.38-4.26,11.08-2.34,39.12-1.54,48.5,.08,.93,.86,1.53,1.67,1.53,.36,0,.73-.12,1.05-.37l1.5-1.2c.32-.25,.68-.37,1.04-.37,.8,0,1.57,.58,1.67,1.48l1.81,15.37c.11,.91,.87,1.48,1.68,1.48,.37,0,.75-.12,1.08-.39,21.01-17.49,25.02-33.4,25.28-34.5,0-.04,.02-.07,.02-.11,7.15-42.97-2.34-48.57-6.13-49.17-.82-.13-1.44-.82-1.44-1.66v-25.91c0-18.88-2.52-44.06-7.55-61.68-4.75-16.62-9.5-38.85-10.02-41.32-.03-.15-.08-.3-.16-.44-16.93-32.38-61.22-53.28-65.08-55.05-.18-.08-.37-.13-.57-.15-3.38-.26-6.81-.38-10.29-.38-28.91,0-61.13,8.09-91.37,9.21-.92,.03-1.92,.05-3,.05-34.66,0-147.85-17.15-214.12-17.15-7.62,0-14.61,.23-20.8,.73-61.68,5.04-55.39,17.62-69.23,20.14-2.73,.5-5.17,.75-7.33,.83-.03,0-.06,0-.08,0-2.09,0-2.28-3.14-.14-3.35,7.86-.79,12.28-2.55,14.5-3.77,1.02-.56,1.16-1.98,.28-2.74-8.93-7.66-21.29-8.8-27.86-8.8-1.83,0-3.21,.09-3.95,.15-.05,0-.09,0-.14,0-.34,0-.67-.1-.95-.31-3.39-2.41-23.26-16.34-34.75-19.79-10.65-3.2-20.41-3.69-23.15-3.76-.49-.01-.93-.23-1.24-.61-1.16-1.45-4.36-5.22-8.34-8.21-4.36-3.27-12.5-6.54-15.42-6.54h0Zm6.61,123.61c-5.56,0-10.07-5.92-10.07-13.22s4.51-13.22,10.07-13.22,10.07,5.92,10.07,13.22-4.51,13.22-10.07,13.22h0Z"/></g><path class="cls-1" d="M59.99,303.75c-.89-.39-1.72-.92-2.41-1.61-7.9-7.85-6.49-30.01,2.23-35.46,9.1-5.69,17.06-5.69,21.61-4.55,4.55,1.14,12.51,11.38,2.28,30.71-8.4,15.86-19.86,12.59-23.71,10.9Z"/><path class="cls-4" d="M171.24,274.04c-12.66-1.27-22.75-18.2-5.69-63.7,17.06-45.5,39.81-26.16,40.95-23.89,1.09,2.18,11.4,6.4-8.62,61.2-2.64,7.22-6.73,13.86-12.24,19.22-4.25,4.13-9.43,7.67-14.41,7.17Z"/><path class="cls-1" d="M242.78,268.49c.17,2.31-1.93,4.16-4.21,3.75-5.5-1-14-3.84-17.7-11.98-5.69-12.51,6.83-38.68,6.83-59.15s3.41-35.26,12.51-37.54c9.1-2.28,47.78-2.28,55.74,9.1,6.78,9.69,6.96,55.72,6.87,69.13-.01,2-1.66,3.6-3.66,3.57-6.97-.11-22.47,.08-32.78,3.52-12.23,4.08-24.47,8.16-23.6,19.6Z"/><path class="cls-4" d="M178.55,299.26c0-9.38,22.13-14.69,44.62-11.33,22.5,3.37,18.86,3,18.86,3,0,0,4.48,16.62,16.57,28.97,7.7,7.87,14.19,12.57,17.89,14.95,2.11,1.35,3.29,3.77,3.05,6.27-.64,6.73-2.94,19.53-11.13,25.26-11.38,7.96-35.26,4.55-62.57-22.75-27.3-27.3-27.3-38.68-27.3-44.37Z"/><path class="cls-4" d="M248.3,276.92c-2.23-10.06,12.51-15.93,37.54-19.34s28.03,5.69,28.8,9.67,4.48,57.22-7.61,63.59c-12.09,6.37-49.63-12.97-58.73-53.92Z"/><path class="cls-4" d="M320.58,250.82c3.41,15.93,24.32,19.68,41.73,19.51,17.42-.17,25.38,2.11,34.48-5.86,0,0,4.55-70.53,2.28-85.32-1.98-12.9-31.65-14.55-39.21-14.76-1.12-.03-2.23-.1-3.35-.18-5.78-.44-25.41-.87-30.24,12.67-3.94,11.03-5.69,73.94-5.69,73.94Z"/><path class="cls-4" d="M326.51,341.88c0-11.38,4.72-19.96,16.01-19.65,11.29,.31,42,7.14,68.17,6,26.16-1.14,65.98-7.96,76.22-2.28,0,0,4.96,10.24,4.75,15.93s-.2,12.51-5.89,15.93c-5.69,3.41-38.47,9.77-76.68,10-38.21,.23-65.52-4.32-74.62-7.73-9.1-3.41-7.96-18.2-7.96-18.2Z"/><path class="cls-4" d="M407.64,317.19c-33.22-.95-70.78-6.51-75.33-13.33,0,0-3.74-26.96,6.66-28.27,10.4-1.31,24.22,5.76,71.34,4.5,47.13-1.26,54.59-5.47,64.51-4.5,9.92,.97,9.92,12.34,9.92,16.89s0,12.51-4.55,14.79-43.87,10.74-72.56,9.92Z"/><path class="cls-4" d="M417.75,268.35c-6.94-5.55-2.28-68.25-4.55-79.63-2.28-11.38,3.41-17.06,9.1-19.34,5.69-2.28,53.33,0,53.33,0,0,0,6.96,.1,10.37,3.46,3.41,3.36,8.38,11.03,8.17,14.02-.21,2.99-15-1.56-26.37,8.68-10.99,9.89-13.09,37.86,22.48,40.25,2.2,.15,3.9,1.99,3.9,4.2v6.7c0,1.76-1.16,3.22-2.79,3.86-2.12,.83-4.77,3.94-5.29,14.04-.11,2.13-1.78,3.86-3.91,3.99-10.27,.63-38.24,2.49-45.9,4.33-9.44,2.27-12.85,0-18.54-4.56Z"/><path class="cls-1" d="M507.05,232.8c-23.91,.22-33.25-9.57-33.07-21,.18-11.43,10.67-22.93,37.98-21.43,27.31,1.49,30.81,16.28,30.62,25.1-.19,8.82-17.18,17.16-35.52,17.33Z"/><path class="cls-4" d="M526.73,186.44c-2.16-.62-3.68-2.56-3.75-4.8-.07-2.34,.42-5.07,2.77-6.28,4.52-2.33,38.17-8.16,47.48-8.39,9.3-.24,22.95-.4,24.12,1.87s2.7,36.37-7.34,53.56c-5.81,9.94-11.24,19.88-14.78,26.49-1.8,3.36-6.5,3.71-8.74,.64-4.82-6.6-13.23-16.95-22.99-15.2-8.93,1.6-13.96,1.68-16.38,1.55-.42-.02-.49-.6-.1-.74,6.09-2.04,26.36-9.91,27.57-24.83,1.15-14.18-19.76-21.54-27.86-23.85Z"/><path class="cls-4" d="M627.87,191.65c-11.48-9.39-21.61-19.34-18.2-26.16,3.41-6.83,25.35,4.55,32.58,13.08,7.23,8.53,17.32,25.43,14.55,28.36-2.77,2.93-16.42-5.04-28.93-15.27Z"/><path class="cls-4" d="M578.96,285.49c7.07-26.96,26.03-72.81,35.13-71.67,9.1,1.14,16.22,19.08,17.78,92.58,0,0,1.56,30.27-8.68,37.1-10.24,6.83-35.26-1.14-39.81-12.51-4.55-11.38-7.7-32.98-4.42-45.5Z"/><path class="cls-4" d="M615.6,440.92c-8.45,3.38-22.75-23.89-22.75-47.78s7.96-30.71,20.48-30.71,19.34,11.38,19.34,28.44,0,43.23-17.06,50.05Z"/><path class="cls-4" d="M543.98,363.61c-15.9,.94-24.58-18.73-23.1-40.08,1.48-21.35,8.31-33.86,20.82-33.86s21.17,22.22,21.39,33.86c.22,11.64,.22,38.94-19.11,40.08Z"/><path class="cls-4" d="M531.46,283.5c-9.17,5.5-11.33,16.59-11.82,22.34-.13,1.48-1.89,2.18-2.97,1.16-8.19-7.7-29.67-32.09-4.54-56.97,.08-.08,.16-.15,.25-.21,2.29-1.6,32.23-21.51,51.92,17.47,.1,.19,.16,.4,.18,.61,.31,2.63,2.34,20.7,1.06,29.99-.22,1.6-2.32,2.07-3.22,.72-4.88-7.29-17.53-23.11-30.87-15.11Z"/><path class="cls-4" d="M268.54,452.18c-10.79,3.6-24.33-32.2-22.97-49.09,1.36-16.89,10.58-24.17,19.62-23.94,9.04,.22,19.28,10.46,19.28,21.84s-2.28,46.64-15.93,51.19Z"/></svg>