<?xml version="1.0" encoding="UTF-8"?><svg id="_イヤー_1" xmlns="http://www.w3.org/2000/svg" viewBox="0 0 663 637"><defs><style>.cls-1{fill:#f76262;}.cls-2{fill:#fff4d7;}.cls-3{fill:#f0a2a2;}.cls-4{fill:#293462;}</style></defs><g><path class="cls-2" d="M244.01,582.3c2.86-2.05,7.21-4.09,9.48-5.15,4.22-1.97,6.33-2.96,6.27-5.67-.02-.88-.19-1.61-.68-2.23,2.28,.14,4.63,.33,6.94,.52,4.13,.34,8.04,.66,11.27,.66,1.44,0,2.64-.06,3.68-.19,2.71-.34,10.95-1.37,24.73-50.15l.72-2.55-2.26-1.38c-1.7-1.04-3-2.21-3.65-3.3-2.1-3.5-2.79-7.05-3.02-8.85-.24-1.94-1.61-3.56-3.48-4.13l-2.93-.89-21.69,47.46,4.51,.75c7.3,1.22,9.7,3.58,9.97,4.78,.12,.54-.23,.9-.44,1.06-.54,.24-2.98,.93-13.24,.93-4.18,0-8.83-.1-13.32-.2-4.36-.1-8.47-.19-12.07-.19-5.63,0-10.79,.57-14.94,1.04-1.33,.15-2.57,.29-3.69,.39,2.81-1.38,6.63-2.95,10.43-4.21l18.22-6.04c1.35,.13,2.54,.21,3.52,.21s1.78-.08,2.45-.24c2.32-.58,6.2-1.55,16.97-40.11l.74-2.65-2.4-1.35c-2.85-1.6-5.26-6.72-7.37-15.65-2.77-11.74-13.1-19.94-25.11-19.94-.42,0-.84,.01-1.26,.03l-.82,.05c-.18,.01-.37,.02-.56,.02-18.48,0-77.3-44.82-101.76-82.08l-.06-.09-.07-.09c-.2-.27-20.57-28.97-24.58-120.81-.17-3.87-3.33-6.9-7.19-6.9-.48,0-.96,.05-1.44,.15-2.35,.48-5.92,1.05-9.6,1.05s-6.97-.6-9.34-1.79c-7.96-3.98-18.46-22.65-15.16-34.74,2.61-9.58,15.18-25.91,20.47-32.49,1.42-1.77,1.79-4.18,.95-6.29-.83-2.11-2.75-3.61-4.99-3.93-6.32-.89-15.32-1.96-22.28-1.96-2.02,0-3.78,.09-5.23,.27-3.56,.45-6.64,.89-9.17,1.28,2.85-3.21,8.74-7.96,20.89-13.65,1.82-.85,2.95-2.71,2.87-4.72-.08-2-1.33-3.74-3.2-4.45-.21-.08-.44-.17-.68-.27-13.08-5.28-20.24-19.73-16.67-33.61,4.58-17.75,6.28-30.32,5.07-37.46,.1,0,.19,0,.29,0,3.16,0,7.92,.55,12.66,3.16l8.44,4.65c.77,.42,1.63,.64,2.5,.64,1.64,0,3.19-.79,4.16-2.11,2.18-2.97,5.84-8.77,5.84-14.24v-11.65c1.23-.48,3.14-1.02,5.58-1.02,2.75,0,5.6,.68,8.45,2.03,6.05,2.85,8.22,7.05,8.98,10.07,.53,2.13,2.44,3.62,4.63,3.62,1.41,0,2.74-.63,3.65-1.72,7.72-9.31,12.07-16.52,12.98-21.51,5.9,1.33,15.52,5.68,17.6,19.8,.38,2.58,2.63,4.53,5.23,4.53,.58,0,1.14-.09,1.69-.28,6.23-2.11,16.3-6.51,19.48-13.7,5.43,3.64,14.75,13.68,11.58,38.73-.78,2.2-5.93,16.13-15.18,26.03-1.09,1.16-1.54,2.79-1.23,4.35,.32,1.57,1.38,2.89,2.84,3.54,4.76,2.12,21.59,11.16,38.12,38.4,3.13,5.16,6.19,10.65,9.42,16.46,17.4,31.26,39.04,70.17,89.89,79.71,17.65,3.31,31.85,5.51,42.22,6.53,.74,.07,1.49,.11,2.22,.11,9.9,0,18.81-6.68,21.66-16.24,5.43-18.19,21.94-51.56,71.54-70.57,16.38-6.28,33.86-9.46,51.93-9.46,27.06,0,50.19,7.09,64.82,13.04,17.85,7.26,29.17,15.21,32.11,18.51,10.44,11.74,10.49,17.53,8.99,22.02-.77,2.31-6.99,4.8-15.69,4.8h0c-2.51,0-4.87-.23-6.66-.65-.3-.07-.61-.11-.92-.11-1.51,0-2.87,.84-3.56,2.19-.69,1.35-.56,2.95,.34,4.17,4.15,5.69,6.19,11.09,5.19,13.76-.17,.46-.69,1.85-4.05,2.63-4.39,1.01-8.7,1.53-12.82,1.53s-6.93-.48-8.72-.88c-.29-.06-.58-.1-.87-.1-1.69,0-3.19,1.08-3.74,2.68-.55,1.59-.02,3.36,1.31,4.4,3.07,2.39,12.81,10.7,9.24,17.12-1.74,3.14-5.65,4.73-11.61,4.73-3.49,0-6.81-.56-8.98-1.04-.29-.06-.58-.09-.87-.09-1.68,0-3.17,1.02-3.78,2.6-.61,1.57-.19,3.33,1.06,4.46,3.35,3.05,10.77,10.84,7.22,17.23-2.78,5-9.79,6.05-15.18,6.05-2.17,0-4.03-.18-5.21-.32l-.22-.03h-.27c-1.69,0-3.16,1.08-3.67,2.7-.5,1.62,.09,3.35,1.49,4.31,2.5,1.72,10.47,7.87,8.24,14.54-2.76,8.27-14.34,10.01-23.58,10.01-2.14,0-4.41-.09-6.77-.27-1.47-.11-2.91-.17-4.27-.17-1.88,0-3.67,.11-5.33,.32-7.08,.91-12.84,6.29-14.35,13.37-2.55,12.04-13.46,43.6-59.49,76.77-2.05,1.3-41.83,26.36-69.12,33.75-9.71,2.63-17.75,9.44-22.05,18.68-8.63,18.54-12.95,22.03-14.06,22.66-.95,.53-2.09,.93-3.38,1.18l-1.69,.33-21.48,42.96c-1.55,1.58-2.87,4.12-2.1,6.87,1.36,4.88,8.02,6.45,12.91,7.2,6.46,.99,7.93,2.46,8.15,2.74-.04,.18-.25,.78-1.25,1.86-.39,.07-1.25,.19-2.95,.19-4.61,0-11.71-.8-16.9-1.38-3.78-.42-5.98-.66-7.13-.66-1.67,0-6.45,.23-11.99,.49-7.03,.34-14.99,.72-18.34,.72-2.5,0-5.64,.76-8.67,1.5-.77,.19-1.58,.38-2.37,.56ZM114.47,141.45c-7.28,0-13.2,7.28-13.2,16.23s5.92,16.23,13.2,16.23,13.2-7.28,13.2-16.23-5.92-16.23-13.2-16.23Zm121.04,402.52c-3.19-.02-6.73-.57-8.6-1.25,.82-.18,2.17-.35,4.32-.35,4.75,0,10.93,.8,16.38,1.51,.44,.06,.88,.11,1.31,.17l-13.4-.08Z"/><path class="cls-4" d="M140.4,58.83c4.94,1.93,10.31,6.27,11.74,15.95,.63,4.28,4.37,7.51,8.7,7.51,.96,0,1.9-.16,2.81-.46,6.84-2.32,14.76-6.05,19.25-11.77,4.48,4.5,9.56,13.86,7.26,32.66-1.04,2.86-5.92,15.48-14.32,24.46-1.86,1.99-2.64,4.77-2.1,7.43,.54,2.67,2.35,4.93,4.84,6.04,4.53,2.02,20.55,10.65,36.56,37.02,3.1,5.11,6.14,10.57,9.36,16.35,17.75,31.9,39.84,71.61,92.31,81.44,17.74,3.33,32.05,5.54,42.52,6.57,.85,.08,1.72,.13,2.57,.13,11.44,0,21.73-7.71,25.02-18.74,5.24-17.58,21.24-49.83,69.44-68.31,15.98-6.13,33.03-9.23,50.68-9.23,49.74,0,88.82,24.19,94.31,30.38,9.02,10.14,9.44,14.84,8.38,18.31-1.04,.97-5.61,2.69-12.46,2.69-2.25,0-4.33-.2-5.86-.56-.56-.13-1.14-.2-1.72-.2-2.83,0-5.39,1.57-6.68,4.1-1.29,2.53-1.04,5.52,.63,7.82,3.77,5.16,4.93,9.14,4.77,10.34-.21,.13-.71,.37-1.58,.57-4.13,.95-8.18,1.44-12.03,1.44-3.65,0-6.34-.43-7.97-.8-.54-.12-1.09-.18-1.63-.18-3.18,0-6.01,2.02-7.05,5.04-1.03,3.01-.04,6.34,2.47,8.29,5.16,4.02,9.97,9.7,8.33,12.66-1.41,2.55-5.96,2.93-8.55,2.93-3.35,0-6.6-.6-8.24-.96-.53-.12-1.08-.18-1.62-.18-3.14,0-5.9,1.9-7.04,4.83-1.13,2.93-.36,6.2,1.96,8.31,.93,.85,9.03,8.41,6.51,12.94-2.13,3.84-9.19,4.25-12.12,4.25-1.99,0-3.69-.16-4.76-.29l-.49-.06h-.44c-3.23,0-6.05,2.07-7.01,5.16-.96,3.09,.18,6.4,2.84,8.23,.87,.6,8.43,5.99,6.91,10.55-2.21,6.63-13.64,7.62-20.26,7.62-2.05,0-4.23-.09-6.5-.26-1.56-.12-3.09-.18-4.54-.18-2.03,0-3.97,.12-5.78,.35-8.55,1.1-15.51,7.58-17.32,16.11-2.47,11.63-13.06,42.16-58.03,74.59-2.81,1.77-41.56,26.09-68.08,33.28-10.71,2.9-19.57,10.4-24.31,20.58-8.57,18.41-12.46,21-12.61,21.09-.62,.35-1.4,.62-2.33,.79l-3.39,.65-1.54,3.09-6.45,12.9c1.06-3.41,2.16-7.1,3.29-11.1l1.44-5.11-4.53-2.77c-1.4-.86-2.21-1.68-2.48-2.12-1.77-2.95-2.35-5.96-2.54-7.48-.41-3.31-2.74-6.08-5.94-7.04l-5.85-1.77-2.54,5.56-11.53,25.22c1.76-5.28,3.74-11.83,6.02-19.99l1.48-5.3-4.79-2.69c-.68-.38-3.1-2.48-5.68-13.41-3.15-13.33-14.87-22.63-28.52-22.63-.48,0-.96,.01-1.44,.04-.28,.01-.57,.03-.86,.05-.11,0-.22,0-.33,0-6.54,0-23.35-8.03-46.16-25.97-21.85-17.19-41.54-37.57-52.67-54.53l-.08-.13-.16-.2c-.34-.49-5.19-7.65-10.44-25.18-5.01-16.72-11.4-46.55-13.46-93.7-.25-5.75-4.94-10.25-10.69-10.25-.71,0-1.43,.07-2.13,.22-2.19,.45-5.51,.98-8.9,.98s-5.93-.49-7.78-1.42c-2.65-1.33-7-5.94-10.28-12.93-3.13-6.68-4.28-13.31-3.07-17.76,1.69-6.2,9.1-17.88,19.82-31.22,2.21-2.75,2.77-6.49,1.48-9.77-1.3-3.27-4.27-5.61-7.75-6.11-6.43-.91-15.6-1.99-22.77-1.99-.83,0-1.61,.01-2.34,.04,2.73-1.66,6.12-3.5,10.32-5.46,3.1-1.45,5.02-4.6,4.89-8.02-.13-3.4-2.27-6.38-5.45-7.59-.2-.07-.4-.15-.61-.24-11.46-4.63-17.73-17.31-14.59-29.49,4.65-18.02,5.71-28.44,5.55-34.57,2.25,.33,4.83,1.05,7.38,2.46l8.44,4.65c1.28,.71,2.73,1.08,4.19,1.08,2.75,0,5.36-1.32,6.98-3.53,2.98-4.05,6.53-10.17,6.53-16.32v-8.99c.62-.1,1.31-.17,2.08-.17,2.23,0,4.57,.57,6.96,1.69,4.81,2.27,6.51,5.47,7.08,7.75,.92,3.69,4.22,6.27,8.03,6.27,2.46,0,4.77-1.09,6.34-2.98,7.48-9.01,11.04-15.16,12.69-19.38m-25.93,118.57c9.36,0,16.7-8.67,16.7-19.73s-7.33-19.73-16.7-19.73-16.7,8.67-16.7,19.73,7.33,19.73,16.7,19.73m151.4,368.31l-1.57,3.43,7.87,1.31c-.62,0-1.29,0-1.99,0-4.14,0-8.77-.1-13.24-.2-2.49-.06-4.91-.11-7.2-.14l5.48-1.82c1.15,.1,2.2,.15,3.11,.15,1.3,0,2.35-.11,3.3-.35,1.32-.33,2.65-.66,4.25-2.39m23.16,23.72c.04,.2,.09,.39,.15,.59,.8,2.88,2.68,4.89,5.02,6.33-.44-.05-.87-.1-1.29-.14-4.02-.45-6.18-.69-7.52-.69-1.67,0-5.71,.19-12.16,.5-3.88,.19-8.31,.4-11.97,.54,.95-.95,1.62-2.07,1.88-3.51,.87,.07,1.74,.14,2.6,.21,4.21,.35,8.18,.67,11.55,.67,1.58,0,2.93-.07,4.11-.22,1.75-.22,4.28-.54,7.63-4.28M135.9,50.57c-.76,0-1.38,.67-1.26,1.44,.82,5.24-8.33,16.94-12.31,21.74-.26,.31-.61,.45-.96,.45-.55,0-1.08-.35-1.24-.97-.81-3.26-3.3-8.81-10.88-12.39-3.76-1.77-7.13-2.36-9.95-2.36-4.19,0-7.16,1.3-8.42,1.98-.41,.22-.66,.65-.66,1.12v13.07c0,4.59-3.48,9.88-5.16,12.17-.32,.44-.83,.68-1.34,.68-.28,0-.56-.07-.81-.21l-8.44-4.65c-5.31-2.93-10.63-3.59-14.35-3.59-1.43,0-2.62,.1-3.48,.2-.72,.09-1.16,.83-.89,1.51,2.9,7.13-1.28,26.39-4.38,38.38-4,15.49,3.91,31.74,18.74,37.73,.26,.1,.51,.2,.75,.29,1.22,.46,1.26,2.17,.08,2.72-18.25,8.55-23.5,15.43-24.99,18.92-.44,1.02,.35,2.11,1.41,2.11,.09,0,.18,0,.27-.02,2.6-.46,7.3-1.23,13.49-2.01,1.39-.17,3.02-.25,4.8-.25,6.97,0,16.2,1.13,21.79,1.93,2.17,.31,3.17,2.85,1.8,4.56-5.91,7.36-18.36,23.68-21.11,33.76-3.64,13.33,7.27,33.94,16.97,38.79,3.23,1.62,7.14,2.15,10.91,2.15s7.59-.57,10.3-1.12c.25-.05,.5-.07,.74-.07,1.93,0,3.6,1.54,3.69,3.56,4.13,94.56,25.27,122.75,25.27,122.75,25.13,38.29,84.5,83.66,104.68,83.66,.26,0,.52,0,.77-.02,.26-.02,.52-.03,.77-.04,.37-.02,.73-.03,1.09-.03,10.31,0,19.32,7.12,21.71,17.24,2.69,11.39,5.71,16.02,9.06,17.9-3.04,10.88-10.63,36.7-14.45,37.66-.39,.1-.93,.14-1.6,.14-5.22,0-18.29-2.58-27.1-2.58-4.3,0-7.58,.61-8.44,2.44-2.85,6.06,12.71,6.16,12.71,6.16,0,0-17.98,5.97-16.77,9.6,.4,1.21,1.89,1.62,4.21,1.62,4.63,0,12.59-1.62,21.87-1.62,7.33,0,17.18,.39,25.4,.39,7.38,0,13.43-.31,15.17-1.51,3.67-2.52,3.67-9.79-10.88-12.22l18.52-40.52c.52,.16,.94,.61,1.02,1.21,.28,2.26,1.1,6.24,3.49,10.22,.99,1.64,2.7,3.19,4.83,4.49-3.52,12.46-13.87,46.64-21.8,47.63-.94,.12-2.03,.17-3.25,.17-6.46,0-16.33-1.39-24.06-1.39-5.89,0-10.54,.81-11.48,3.65,0,0,14.49,1.1,14.52,2.37,.03,1.27-15.73,6.12-18.15,12.18-.81,2.02,.13,2.69,1.96,2.69,3.67,0,10.92-2.69,14.98-2.69,6.09,0,26.69-1.21,30.33-1.21,2.73,0,16.36,2.05,24.03,2.05,2.56,0,4.45-.23,5.06-.83,2.42-2.42,7.27-8.48-8.48-10.91-15.76-2.42-8.48-8.48-8.48-8.48l20.99-41.98c1.56-.3,3.07-.8,4.44-1.57,4.7-2.64,10.92-14.35,15.52-24.23,3.82-8.21,11.05-14.41,19.79-16.78,28.74-7.78,70.17-34.23,70.17-34.23,46.86-33.74,58.21-66.02,60.95-78.94,1.19-5.59,5.71-9.89,11.37-10.62,1.44-.19,3.06-.29,4.89-.29,1.24,0,2.57,.05,4,.16,2.39,.18,4.74,.28,7.04,.28,12.87,0,23.81-3.15,26.9-12.4,2.95-8.85-6.06-16.1-9.57-18.53-.29-.2-.14-.64,.19-.64,.02,0,.03,0,.05,0,1.3,.16,3.31,.35,5.64,.35,6.17,0,14.6-1.31,18.24-7.85,4.77-8.59-3.98-17.93-7.92-21.52-.39-.35-.12-.97,.36-.97,.04,0,.08,0,.13,.01,2.24,.49,5.88,1.12,9.73,1.12,5.66,0,11.8-1.36,14.67-6.53,4.8-8.64-5.61-18.04-10.15-21.58-.35-.28-.13-.81,.28-.81,.04,0,.07,0,.11,.01,2,.45,5.23,.96,9.49,.96,3.77,0,8.35-.4,13.6-1.62,13.41-3.09,3.99-17.6,.89-21.86-.25-.34,0-.8,.39-.8,.04,0,.08,0,.12,.01,2.06,.48,4.68,.74,7.46,.74,7.97,0,17.32-2.12,19.01-7.2,2.42-7.27,0-14.55-9.7-25.45-7.27-8.18-48.64-32.73-99.55-32.73-16.97,0-35,2.73-53.18,9.7-51,19.55-68.02,54-73.64,72.84-2.44,8.19-9.92,13.74-18.31,13.74-.62,0-1.25-.03-1.88-.09-8.8-.87-22.03-2.76-41.92-6.49-58.18-10.91-76.36-60.61-96.97-94.55-16.86-27.77-34.01-37.25-39.69-39.78-.9-.4-1.15-1.58-.48-2.3,10.7-11.44,16.05-27.62,16.05-27.62,4.15-31.84-10.82-41.67-15.9-44.05-.16-.08-.34-.11-.51-.11-.56,0-1.09,.39-1.17,.99-.97,7.52-13.08,12.36-18.04,14.04-.19,.06-.38,.09-.57,.09-.86,0-1.64-.63-1.77-1.54-2.78-18.78-17.39-22.46-23-23.18-.06,0-.11-.01-.17-.01h0Zm-21.43,119.84c-5.36,0-9.7-5.7-9.7-12.73s4.34-12.73,9.7-12.73,9.7,5.7,9.7,12.73-4.34,12.73-9.7,12.73h0Z"/></g><path class="cls-3" d="M285.79,471.1s-15.48-25.39-5.97-77.67c5.97-32.86,19.92-37.84,19.92-37.84,0,0-1.99-2.99-1.99-8.96s1.99-6.97,1.99-6.97c0,0-3.98-1.99-6.97-8.96s-1.99-11.95-1.99-11.95c0,0-40.83-57.87-93.61-11.01,0,0-32.86,30.92-2.99,94.66,29.87,63.73,69.71,69.71,91.62,68.71Z"/><path class="cls-1" d="M323.06,485.26c-18.95,0-45.81-18.92-36.85-78.67,0,0,3.77-27.3,17.7-44.37,.61-.75,1.74-.78,2.41-.09,3.46,3.56,14.63,12.65,35.66,8.61,20.64-3.97,22.29-16.8,22.12-21.84-.04-1.07,.96-1.88,2-1.63,5.21,1.25,19,5.84,34.63,21.47,19.92,19.92-7.97,55.77-22.9,63.73-14.39,7.67-22.31,23.66-22.87,24.83-.02,.05-.04,.08-.05,.13-.53,1.44-10.54,27.82-31.84,27.82Z"/><path class="cls-3" d="M333.02,364.11c-10.95,0-26.89-3.98-27.88-18.92s22.9-17.75,27.88-17.84,25.82,1.99,27.35,18.38-27.35,18.38-27.35,18.38Z"/><path class="cls-1" d="M331.03,320.86c13.32-.63,22.69,6.19,26.1,9.14,.74,.64,1.89,.39,2.28-.51,3.03-6.98,10.92-31.78-28.38-34.89,0,0-23.72-1.49-31.28,18.29-.02,.04-.03,.08-.04,.13-.26,.87-2.88,10.38,4.07,18.52,.61,.71,1.72,.66,2.27-.1,2.23-3.08,8.91-9.82,24.98-10.59Z"/><path class="cls-3" d="M348.71,287.78c-1.01,.42-1.12,1.8-.19,2.37,5.69,3.51,20.25,13.61,21.3,25.66,.91,10.5-1.57,15.49-3.14,17.55-.52,.68-.25,1.66,.52,2.01,7.76,3.5,40.23,17.27,59.51,11.97,19.82-5.45,16.62-23.38,15.79-26.89-.09-.37-.33-.68-.66-.86-2.88-1.53-17.89-10.33-42.21-38.65-.06-.07-.12-.13-.2-.19-1.25-.93-13.33-8.68-50.72,7.03Z"/><path class="cls-3" d="M452.51,231.84c-6.51,1.27-19.22,6.14-33.39,24.43-.08,.11-.16,.21-.25,.3-1.13,1.24-9.07,9.91-11.62,10.63-2.74,.78-8.33,4.61-1.37,10.78,6.96,6.17,16.56,13.81,21.27,19.88,4.7,6.07,9.41,12.15,19.21,15.28,9.8,3.13,20.77,0,25.87-2.95,5.09-2.94,4.31-5.68,10.29-8.14,5.98-2.45,18.42,2.15,27.04-9.22,4.12-5.43,4.5-10.3,3.78-13.91-.61-3.03-3.6-4.87-6.63-4.29-3.29,.62-9.24-.05-19.59-5.8-6.61-3.67-20.37-16.37-28.45-33.84-1.09-2.35-3.61-3.66-6.15-3.17Z"/><path class="cls-3" d="M465.75,226.1c2.48-11.23,26.53-15.41,59.18-6.62,32.65,8.8,29.73,28.45,28.65,30.15-1.08,1.7-4.33,6.81-16.09,6.51s-13.97,6.12-18.9,8.64c-4.93,2.52-9.56,7.94-16.92,4.46-7.35-3.48-12.15-5.33-23.38-19.63-11.23-14.31-15.09-11.98-12.55-23.51Z"/><path class="cls-1" d="M196.64,372.13c-2.35-11.02-2.34-22.47,.61-33.35,2.86-10.58,8.59-21.53,20.04-23.03,22.9-2.99,34.85,29.87,29.87,60.74-3,18.61-3.11,33.25-2.72,41.93,.18,4.08,.69,8.15,1.56,12.14,.9,4.11,1.87,10.94-.84,13.64-3.73,3.73-36.2-14.33-48.53-72.08Z"/></svg>