<?xml version="1.0" encoding="UTF-8"?><svg id="_イヤー_1" xmlns="http://www.w3.org/2000/svg" viewBox="0 0 180 180"><defs><style>.cls-1{fill:#f76262;}.cls-2{fill:#fff;}.cls-3{fill:#fff4d7;}.cls-4{fill:#faffb4;}.cls-5{fill:#293462;}</style></defs><g><circle class="cls-2" cx="90" cy="107.56" r="66.95"/><path class="cls-5" d="M90,176.8c-38.18,0-69.24-31.06-69.24-69.24S51.82,38.32,90,38.32s69.24,31.06,69.24,69.24-31.06,69.24-69.24,69.24Zm0-133.9c-35.65,0-64.66,29.01-64.66,64.66s29.01,64.66,64.66,64.66,64.66-29.01,64.66-64.66S125.65,42.9,90,42.9Z"/></g><g><path class="cls-3" d="M132.41,154.81c-13.33-26.66-.91-80.88-.91-80.88,7.27-30.9-22.42-41.2-22.42-41.2-48.47-10.3-74.83,110.57-74.83,110.57,0,0,11.14,24.84,49.19,29.38,38.05,4.54,48.96-17.87,48.96-17.87Z"/><path class="cls-5" d="M93.39,176.03c-3.19,0-6.61-.2-10.26-.63-39.13-4.67-50.88-29.9-51.36-30.98l-.37-.82,.19-.88c.07-.31,6.79-30.82,19.4-59.66,7.47-17.08,15.53-30.29,23.96-39.27,10.97-11.67,22.64-16.29,34.69-13.73l.33,.09c.33,.11,8.08,2.86,14.96,9.65,6.44,6.36,13.26,17.56,9.22,34.75-.12,.52-12.04,53.57,.69,79.04l.6,1.2-.59,1.21c-.44,.9-10.14,20.02-41.47,20.02Zm-56.25-33.09c2.23,4.05,14.4,23.19,46.64,27.04,31.11,3.72,42.86-11.03,45.56-15.28-12.59-27.59-1-79.16-.49-81.38,6.42-27.29-18.08-37.07-20.5-37.96-12.83-2.63-32.27,3.96-52.35,49.89-11.16,25.53-17.63,52.37-18.86,57.69Z"/></g><g><path class="cls-4" d="M108.2,98.19c-3.28-3.76-4.94-8.73-4.37-13.69,.36-3.12,1.59-6.39,4.65-8.75,1.97-1.51,3.94-2.39,5.78-2.84,5.4-1.33,11.06,.99,14.23,5.57,3.6,5.19,7.89,15.42,6.04,33.63,0,0-13.77,.51-26.34-13.91Z"/><path class="cls-5" d="M134.34,114.83c-2.2,0-15.79-.6-28.2-14.85h0c-3.84-4.41-5.67-10.17-5.02-15.8,.51-4.46,2.49-8.13,5.7-10.6,2.1-1.61,4.38-2.73,6.8-3.33,6.39-1.57,13.27,1.1,17.12,6.66,4.03,5.81,8.42,16.67,6.51,35.46l-.24,2.36-2.37,.09s-.14,0-.29,0Zm-24.09-18.43c8.6,9.86,17.6,12.24,21.8,12.8,1.12-15.5-2.47-24.39-5.79-29.18-2.57-3.71-7.13-5.51-11.34-4.47-1.67,.41-3.28,1.2-4.77,2.35-2.05,1.57-3.26,3.9-3.61,6.9-.47,4.11,.88,8.33,3.72,11.59h0Z"/></g><g><path class="cls-4" d="M104.77,91.27l-1.05-1.33s-5.23,20.65-5.23,32.16c0,0,1.21,7.88,7.27,7.88s10.3-5.45,10.6-7.88c.3-2.42,.3-15.75,.3-15.75"/><path class="cls-5" d="M105.75,132.7c-6.64,0-9.42-6.66-9.97-10.19l-.03-.21v-.21c0-11.72,5.1-31.97,5.32-32.83l1.36-5.36,4.48,5.67-1.12,.88,.57,.14c-.05,.2-5.07,20.15-5.15,31.24,.09,.46,.4,1.75,1.09,2.99,1.2,2.15,2.54,2.4,3.45,2.4,4.72,0,7.74-4.44,7.9-5.49,.2-1.64,.28-10.32,.28-15.41h5.45c0,1.38,0,13.57-.32,16.09-.51,4.09-6.08,10.27-13.31,10.27Z"/></g><g><path class="cls-1" d="M95.76,6.07c5.68-1.49,12.85,7.47,14.29,9.35,.15,.19,.3,.38,.45,.57,1.13,1.36,8.54,15.9,8.88,38.8,0,.59-.91,.9-1.08,.33-2.84-9.36-12.92-22.65-23.12-22.26-9.99,.38-20.35,11.27-24.35,15.95-1.75,2.04-4.45,3.13-7.09,2.61-.88-.17-1.75-.51-2.51-1.12-3.03-2.42-1.21-6.29,0-7.69,.94-1.08,6.37-4.73,8.22-6.31,.36-.31,.24-.9-.22-1.03-2.05-.61-7.54-2.2-8-4.96-.61-3.64,4.85-4.85,6.66-4.85,1.66,0,11.59-.76,12.85-.89,.06,0,.07-.08,.02-.11-.94-.55-8.16-3.64-5.74-8.43,.12-.24,.28-.46,.48-.64,.9-.86,3.76-2.77,10.27-1.14,3.24,.81,9.25,4.05,10.86,4.49,.48,.13,.91-.35,.71-.81-1.08-2.5-6.05-10.68-1.57-11.86Z"/><path class="cls-5" d="M118.7,58.15c-1.39,0-2.61-.88-3.02-2.24-2.58-8.51-11.82-20.65-20.41-20.33-9.16,.35-19.45,11.57-22.38,15-2.44,2.85-6.15,4.2-9.68,3.52-1.41-.27-2.65-.83-3.69-1.66-1.56-1.25-2.48-2.92-2.65-4.84-.25-2.75,1.08-5.36,2.29-6.76,.67-.77,2-1.77,4.89-3.88,.18-.13,.35-.26,.53-.38-2.72-1.13-5.57-2.91-6.05-5.81-.29-1.73,.16-3.36,1.3-4.71,2.3-2.72,6.59-3.31,8.05-3.31,.67,0,3.06-.15,5.58-.33-1.63-2.02-2.42-4.57-.89-7.6,.26-.52,.61-.99,1.04-1.39,1.56-1.48,5.3-3.69,12.8-1.81,1.71,.43,3.95,1.38,6.03,2.33-1.17-2.87-1.76-5.54-.76-7.74,.62-1.37,1.82-2.35,3.37-2.76h0c2.33-.61,8.65-.83,17.15,10.34,.12,.16,.25,.32,.38,.48,2,2.41,9.17,18.01,9.5,40.5,.02,1.65-1.21,3.1-2.88,3.36-.17,.03-.34,.04-.51,.04ZM63.9,29.81c.17,.32,1.09,1.35,6,2.81l.1,.03c1.17,.35,2.05,1.31,2.31,2.5,.25,1.19-.17,2.43-1.09,3.22-.88,.76-2.37,1.84-3.95,2.99-1.42,1.03-3.56,2.59-4,3.05-.43,.5-1.06,1.72-.97,2.68,.04,.44,.23,.76,.63,1.08,.35,.28,.78,.46,1.32,.57,1.6,.31,3.33-.34,4.5-1.71,12.23-14.3,21.74-16.73,26.32-16.9,8.13-.31,15.84,6.47,20.88,14.04-1.82-15.4-6.57-25.1-7.58-26.48-.15-.18-.33-.4-.5-.62-3.51-4.61-8.44-8.91-11.25-8.4-.07,.98,.75,3.18,2.43,6.57,.31,.63,.58,1.17,.77,1.61,.51,1.19,.3,2.53-.55,3.5-.85,.97-2.15,1.37-3.4,1.02-.82-.23-1.98-.76-3.96-1.68-2.16-1-5.12-2.37-6.83-2.8-5.24-1.31-7.24,.04-7.68,.43-.26,.53-.73,1.96,4.17,4.49,.24,.12,.43,.22,.54,.29,1.05,.61,1.57,1.81,1.32,2.99-.26,1.18-1.24,2.06-2.44,2.18-1.33,.14-11.33,.9-13.12,.9-1.07,0-3.22,.59-3.89,1.38-.09,.11-.1,.15-.09,.24Z"/></g><ellipse class="cls-5" cx="89.09" cy="67.57" rx="4.85" ry="6.36"/></svg>